<svg width="90" height="90" viewBox="0 0 90 90" fill="none" xmlns="http://www.w3.org/2000/svg">
<rect width="90" height="90" rx="14" fill="#96B6DC"/>
<path d="M50.28 41.51C49.26 41.51 48.34 41.3 47.52 40.88C46.72 40.46 46.09 39.88 45.63 39.14C45.17 38.4 44.94 37.57 44.94 36.65C44.94 35.73 45.17 34.9 45.63 34.16C46.09 33.42 46.72 32.85 47.52 32.45C48.34 32.03 49.26 31.82 50.28 31.82C51.3 31.82 52.21 32.03 53.01 32.45C53.83 32.85 54.46 33.42 54.9 34.16C55.36 34.9 55.59 35.73 55.59 36.65C55.59 37.57 55.36 38.4 54.9 39.14C54.46 39.88 53.83 40.46 53.01 40.88C52.21 41.3 51.3 41.51 50.28 41.51ZM39.21 32H42.21V53H39.75L27.15 37.34V53H24.15V32H26.61L39.21 47.66V32ZM50.28 33.53C49.28 33.53 48.47 33.82 47.85 34.4C47.25 34.98 46.95 35.73 46.95 36.65C46.95 37.57 47.26 38.32 47.88 38.9C48.5 39.48 49.3 39.77 50.28 39.77C51.26 39.77 52.05 39.48 52.65 38.9C53.27 38.32 53.58 37.57 53.58 36.65C53.58 35.73 53.27 34.98 52.65 34.4C52.05 33.82 51.26 33.53 50.28 33.53ZM45.54 43.88H55.02V45.83H45.54V43.88ZM65.8934 32V53H62.9234V34.61H58.1834V32H65.8934Z" fill="white"/>
<circle opacity="0.2" cx="22.32" cy="31.32" r="10.32" fill="#F7F6F3"/>
</svg>
