<svg width="90" height="90" viewBox="0 0 90 90" fill="none" xmlns="http://www.w3.org/2000/svg">
<rect width="90" height="90" rx="14" fill="#96B6DC"/>
<circle opacity="0.3" cx="29.32" cy="32.82" r="10.32" fill="#F7F6F3"/>
<path d="M32.087 64H40.7826M36.4348 64V22M36.4348 22.8936H39.7026C42.0643 22.8936 44.3287 23.8587 46 25.5745C47.6696 27.2902 49.9357 28.2553 52.2974 28.2553H52.8261C53.3784 28.2553 53.8261 28.703 53.8261 29.2553V39.766C53.8261 40.3182 53.3784 40.766 52.8261 40.766H50.5583C48.1965 40.766 45.9322 39.8009 44.2609 38.0851C42.5907 36.3687 40.3255 35.4043 37.9635 35.4043H36.4348M66 55.0638C66 55.0638 59.913 47.9149 46 47.9149C43.7739 47.9149 41.7461 48.0972 39.913 48.4064M26 55.0638C26 55.0638 28.193 52.4884 32.9565 50.4277M52.087 60.4255C52.087 61.3735 52.4534 62.2827 53.1057 62.9531C53.758 63.6234 54.6427 64 55.5652 64C56.4877 64 57.3724 63.6234 58.0247 62.9531C58.677 62.2827 59.0435 61.3735 59.0435 60.4255C59.0435 59.4775 58.677 58.5683 58.0247 57.898C57.3724 57.2277 56.4877 56.8511 55.5652 56.8511C54.6427 56.8511 53.758 57.2277 53.1057 57.898C52.4534 58.5683 52.087 59.4775 52.087 60.4255Z" stroke="white" stroke-width="2.5"/>
</svg>
