<svg width="90" height="90" viewBox="0 0 90 90" fill="none" xmlns="http://www.w3.org/2000/svg">
<rect width="90" height="90" rx="14" fill="#96B6DC"/>
<circle opacity="0.3" cx="27.32" cy="29.32" r="10.32" fill="#F7F6F3"/>
<g clip-path="url(#clip0_386_947)">
<path d="M62.5886 46.4004C62.3206 49.7675 61.0918 52.9869 59.048 55.6761C57.0042 58.3654 54.2314 60.4114 51.059 61.5711C47.8866 62.7309 44.448 62.9556 41.1516 62.2186C37.8553 61.4815 34.8398 59.8138 32.4634 57.4134C30.087 55.013 28.4496 51.9809 27.7458 48.6773C27.0419 45.3737 27.3012 41.9375 28.4927 38.7769C29.6843 35.6164 31.7581 32.8643 34.4677 30.8476C37.1774 28.8309 40.409 27.6345 43.7786 27.4004" stroke="white" stroke-width="2.3" stroke-linecap="round" stroke-linejoin="round"/>
<path d="M52.5729 47.9589C52.0827 49.2204 51.2858 50.34 50.2543 51.2162C49.2227 52.0924 47.989 52.6976 46.6647 52.9772C45.3404 53.2567 43.9674 53.2018 42.6697 52.8174C41.372 52.4329 40.1905 51.731 39.2323 50.7752C38.274 49.8194 37.5691 48.6398 37.1813 47.3431C36.7935 46.0464 36.735 44.6734 37.0112 43.3485C37.2873 42.0235 37.8894 40.7882 38.763 39.7544C39.6365 38.7206 40.754 37.9208 42.0143 37.4274M45 45.0003L51.7857 38.2146M51.7857 38.2146L57.2143 39.5717L62.6429 34.1431L57.2143 32.786L55.8571 27.3574L50.4286 32.786L51.7857 38.2146Z" stroke="white" stroke-width="2.3" stroke-linecap="round" stroke-linejoin="round"/>
</g>
<defs>
<clipPath id="clip0_386_947">
<rect width="38" height="38" fill="white" transform="translate(26 26)"/>
</clipPath>
</defs>
</svg>
