<svg width="90" height="90" viewBox="0 0 90 90" fill="none" xmlns="http://www.w3.org/2000/svg">
<rect width="90" height="90" rx="14" fill="#96B6DC"/>
<circle opacity="0.3" cx="29.32" cy="32.82" r="10.32" fill="#F7F6F3"/>
<path fill-rule="evenodd" clip-rule="evenodd" d="M32.5899 23.5C32.8569 23.5 33.4354 24.3956 33.9249 25.5152C34.4144 26.6347 34.9039 27.5304 35.0374 27.5304C35.1709 27.5304 36.1054 26.6347 37.1733 25.5152C38.9088 23.6791 39.2203 23.5448 41.2673 23.5C42.6468 23.5 44.2487 23.903 45.4947 24.4852C46.6072 25.0226 49.0101 26.993 50.8791 28.8291C53.2821 31.2921 55.1066 33.6655 57.2425 37.3824C60.046 42.2189 60.1795 42.5772 59.423 43.1146C58.978 43.428 57.198 44.1445 55.507 44.6819C53.0151 45.488 51.3686 45.6671 47.2747 45.6224C43.0027 45.6224 41.7123 45.4432 39.4873 44.5924C37.7073 43.8759 36.0609 42.7563 34.5479 41.2337C33.0349 39.7111 32.0559 38.3229 31.7444 37.1585C31.4329 35.9942 31.4329 34.7403 31.6999 33.576C31.9224 32.5908 32.6789 31.2473 34.5924 29.3217L33.3909 27.2169C32.7234 26.0078 32.1449 24.7091 32.1449 24.2613C32.1449 23.8583 32.3674 23.5 32.5899 23.5ZM37.2623 28.1573C36.8618 29.3217 36.9953 29.5456 39.0423 31.3816C40.2883 32.4564 43.0472 34.5164 45.1832 35.9494C47.3637 37.3377 49.4996 38.8155 49.9891 39.1737C50.4786 39.5768 50.7011 40.0694 50.4786 40.4276C50.2561 40.8755 49.8111 40.9202 49.0546 40.6963C48.4317 40.5172 45.9397 38.9946 43.4922 37.3377C41.0448 35.6807 38.3303 33.6208 37.4848 32.7251C36.6393 31.8295 35.7494 31.113 35.4824 31.0682C35.2154 31.0682 34.7259 31.4264 34.3254 31.8743C33.9249 32.3221 33.4354 33.3521 33.3019 34.1134C33.1239 35.0986 33.3019 36.2629 33.8359 37.472C34.2809 38.5468 35.3489 39.935 36.1944 40.6068C36.9953 41.2785 38.6863 42.2637 39.9323 42.8011C41.4453 43.4728 43.4032 43.8759 45.9397 44.0102C48.8767 44.1893 50.5676 44.0102 53.5046 43.2489C55.596 42.7115 57.4205 42.1294 57.554 41.9502C57.732 41.7711 56.7085 39.7111 55.329 37.3824C53.9051 34.9642 51.5911 31.8743 49.9446 30.2173C48.3427 28.5604 45.9842 26.7243 44.6047 26.0526C43.2697 25.3808 41.8458 24.8435 41.4453 24.8435C41.0893 24.8435 40.0658 25.2913 39.2203 25.8735C38.3748 26.4556 37.4848 27.4856 37.2623 28.1573ZM60.7135 36.6659C61.3809 36.8003 63.0719 37.4272 64.4069 38.0542C65.7419 38.6811 67.2104 39.7111 67.6108 40.3828C68.1893 41.2337 68.3673 42.3085 68.2783 44.1893C68.2338 45.6224 67.7888 48.0406 67.3439 49.5632C66.8544 51.1306 65.4749 53.907 64.2734 55.7431C63.1164 57.5792 61.4254 59.6839 60.58 60.4004C59.7345 61.117 58.177 62.1469 57.0645 62.6843C55.952 63.2217 54.0386 63.9382 52.8371 64.2069C51.5911 64.5204 48.6987 64.7443 46.3847 64.7443C44.0707 64.7443 41.1338 64.5204 39.9323 64.2069C38.6863 63.8934 36.9063 63.3113 35.9274 62.9082C34.9484 62.5052 33.3909 61.4752 32.4119 60.6244C31.4774 59.7735 29.6975 57.5792 28.496 55.7431C27.2945 53.907 25.915 51.1306 25.4255 49.5632C24.9805 48.0406 24.5355 45.6224 24.4465 44.1893C24.402 42.3085 24.58 41.2337 25.114 40.3828C25.559 39.7111 26.7605 38.7707 27.784 38.2333C29.0745 37.6064 29.831 37.472 30.1425 37.7855C30.4539 38.099 29.8755 38.6363 28.4515 39.4872C27.2945 40.1589 26.271 41.0994 26.1375 41.5024C26.004 41.9502 26.004 42.7115 26.1375 43.2041C26.271 43.7415 27.2945 44.5476 28.674 45.2193C29.9645 45.8015 32.4119 46.6523 34.1474 47.1002C36.6393 47.7271 39.1313 47.9062 46.6072 47.8615C54.8396 47.8615 56.3525 47.7271 59.512 46.8315C61.4699 46.2941 63.9174 45.3537 64.9409 44.7715C66.5429 43.8311 66.8544 43.428 66.8099 42.3085C66.7654 41.2785 66.4094 40.7859 64.8964 39.8902C63.9174 39.3081 62.2264 38.5468 61.1584 38.1885C60.046 37.8303 59.2895 37.3377 59.334 36.9794C59.423 36.5764 59.779 36.442 60.7135 36.6659ZM26.627 47.4584C26.7605 48.1749 27.428 50.011 28.0955 51.4888C28.8075 52.9666 30.2315 55.3848 31.3439 56.8627C32.6344 58.5644 34.1474 59.9526 35.5269 60.7139C36.7283 61.3857 38.6863 62.1022 39.9323 62.3709C41.1338 62.6396 43.0472 62.9978 44.1597 63.1322C45.2722 63.2665 47.8532 63.1769 49.9446 62.9082C52.0361 62.6396 54.7506 61.923 56.041 61.2961C57.3315 60.7139 59.334 59.2809 60.4465 58.0718C61.5589 56.9074 63.2499 54.3996 64.1844 52.3844C65.1189 50.414 66.0089 48.1749 66.1424 47.4584L66.4094 46.115C63.1164 47.5928 60.58 48.3988 58.622 48.8467C55.8185 49.5184 53.2376 49.6975 46.3847 49.6975C39.5318 49.6975 36.9508 49.5184 34.1474 48.8467C32.1894 48.3988 29.653 47.5928 28.496 47.0554L26.36 46.115L26.627 47.4584Z" fill="white"/>
</svg>
