<svg width="90" height="90" viewBox="0 0 90 90" fill="none" xmlns="http://www.w3.org/2000/svg">
<rect width="90" height="90" rx="14" fill="#96B6DC"/>
<path d="M45.1485 33.4315L43.3427 31.6372C39.1039 27.4254 31.3315 28.8789 28.5258 34.174C27.2085 36.6646 26.9113 40.2604 29.3166 44.8496C31.6337 49.2683 36.4543 54.561 45.1485 60.3261C53.8427 54.561 58.6608 49.2683 60.9804 44.8496C63.3856 40.258 63.091 36.6646 61.7712 34.174C58.9655 28.8789 51.1931 27.423 46.9543 31.6348L45.1485 33.4315ZM45.1485 63.2597C6.53088 38.5928 33.2582 19.3403 44.7052 29.524C44.8563 29.6587 45.0041 29.7975 45.1485 29.9403C45.2904 29.7966 45.4382 29.6585 45.5918 29.5265C57.0363 19.3354 83.7661 38.5903 45.1485 63.2597Z" fill="white"/>
<circle opacity="0.3" cx="29.32" cy="32.82" r="10.32" fill="#F7F6F3"/>
</svg>
