<svg width="90" height="90" viewBox="0 0 90 90" fill="none" xmlns="http://www.w3.org/2000/svg">
<rect width="90" height="90" rx="14" fill="#96B6DC"/>
<circle opacity="0.2" cx="32.32" cy="26.32" r="10.32" fill="#F7F6F3"/>
<path d="M30 60.748V56.9982C30 55.0092 30.7901 53.1017 32.1966 51.6952C33.603 50.2888 35.5106 49.4987 37.4996 49.4987H38.437M33.7498 34.4996C33.7498 36.4886 34.5399 38.3961 35.9464 39.8025C37.3528 41.209 39.2603 41.9991 41.2493 41.9991C43.2383 41.9991 45.1459 41.209 46.5523 39.8025C47.9588 38.3961 48.7489 36.4886 48.7489 34.4996C48.7489 32.5106 47.9588 30.603 46.5523 29.1966C45.1459 27.7901 43.2383 27 41.2493 27C39.2603 27 37.3528 27.7901 35.9464 29.1966C34.5399 30.603 33.7498 32.5106 33.7498 34.4996ZM52.4987 62.6229L58.7796 56.4658C59.1647 56.092 59.4711 55.6449 59.6806 55.1508C59.8901 54.6566 59.9985 54.1255 59.9994 53.5888C60.0003 53.0521 59.8936 52.5207 59.6857 52.0259C59.4778 51.5311 59.1729 51.083 58.7889 50.708C58.0055 49.9418 56.9538 49.5118 55.858 49.5097C54.7621 49.5076 53.7088 49.9335 52.9224 50.6967L52.5024 51.1092L52.0843 50.6967C51.301 49.9311 50.2497 49.5015 49.1543 49.4994C48.0589 49.4973 47.006 49.9229 46.2197 50.6855C45.8344 51.0591 45.5279 51.5061 45.3182 52.0002C45.1085 52.4942 45 53.0253 44.9989 53.562C44.9979 54.0987 45.1043 54.6302 45.3121 55.125C45.5198 55.6199 45.8246 56.0681 46.2084 56.4433L52.4987 62.6229Z" stroke="white" stroke-width="3" stroke-linecap="round" stroke-linejoin="round"/>
</svg>
