<svg width="68" height="68" viewBox="0 0 68 68" fill="none" xmlns="http://www.w3.org/2000/svg">
<circle cx="34" cy="34" r="33.5" fill="white" stroke="#96B6DC"/>
<path d="M28.6667 29.9997H39.3333M28.6667 35.333H36.6667M42 23.333C43.0609 23.333 44.0783 23.7544 44.8284 24.5046C45.5786 25.2547 46 26.2721 46 27.333V37.9997C46 39.0605 45.5786 40.078 44.8284 40.8281C44.0783 41.5782 43.0609 41.9997 42 41.9997H35.3333L28.6667 45.9997V41.9997H26C24.9391 41.9997 23.9217 41.5782 23.1716 40.8281C22.4214 40.078 22 39.0605 22 37.9997V27.333C22 26.2721 22.4214 25.2547 23.1716 24.5046C23.9217 23.7544 24.9391 23.333 26 23.333H42Z" stroke="#96B6DC" stroke-width="2.5" stroke-linecap="round" stroke-linejoin="round"/>
</svg>
