<svg width="68" height="68" viewBox="0 0 68 68" fill="none" xmlns="http://www.w3.org/2000/svg">
<g filter="url(#filter0_b_2263_2844)">
<circle cx="34" cy="34" r="34" fill="#F7F6F3"/>
<circle cx="34" cy="34" r="33.5" stroke="#96B6DC"/>
</g>
<path fill-rule="evenodd" clip-rule="evenodd" d="M34.0184 36.0938L42.4685 44.544C42.7502 44.8161 43.1276 44.9666 43.5192 44.9632C43.9109 44.9598 44.2855 44.8027 44.5625 44.5258C44.8394 44.2488 44.9965 43.8742 44.9999 43.4825C45.0033 43.0909 44.8528 42.7135 44.5807 42.4318L36.1305 33.9816L44.5807 25.5315C44.8528 25.2498 45.0033 24.8724 44.9999 24.4808C44.9965 24.0891 44.8394 23.7145 44.5625 23.4375C44.2855 23.1606 43.9109 23.0035 43.5192 23.0001C43.1276 22.9967 42.7502 23.1472 42.4685 23.4193L34.0184 31.8695L25.5682 23.4193C25.2852 23.1539 24.9101 23.0091 24.5222 23.0154C24.1343 23.0217 23.764 23.1786 23.4898 23.4531C23.2156 23.7275 23.0589 24.0978 23.0528 24.4857C23.0468 24.8736 23.1919 25.2487 23.4575 25.5315L31.9062 33.9816L23.456 42.4318C23.3134 42.5696 23.1996 42.7344 23.1213 42.9167C23.043 43.0989 23.0018 43.2949 23.0001 43.4933C22.9983 43.6916 23.0361 43.8883 23.1112 44.0719C23.1863 44.2555 23.2973 44.4222 23.4375 44.5625C23.5778 44.7027 23.7445 44.8137 23.9281 44.8888C24.1117 44.9639 24.3084 45.0017 24.5067 44.9999C24.7051 44.9982 24.9011 44.957 25.0833 44.8787C25.2656 44.8004 25.4304 44.6866 25.5682 44.544L34.0184 36.0938Z" fill="#96B6DC"/>
<defs>
<filter id="filter0_b_2263_2844" x="-10" y="-10" width="88" height="88" filterUnits="userSpaceOnUse" color-interpolation-filters="sRGB">
<feFlood flood-opacity="0" result="BackgroundImageFix"/>
<feGaussianBlur in="BackgroundImageFix" stdDeviation="5"/>
<feComposite in2="SourceAlpha" operator="in" result="effect1_backgroundBlur_2263_2844"/>
<feBlend mode="normal" in="SourceGraphic" in2="effect1_backgroundBlur_2263_2844" result="shape"/>
</filter>
</defs>
</svg>
