<svg width="22" height="22" viewBox="0 0 22 22" fill="none" xmlns="http://www.w3.org/2000/svg">
<path fill-rule="evenodd" clip-rule="evenodd" d="M11.0184 13.0938L19.4685 21.544C19.7502 21.8161 20.1276 21.9666 20.5192 21.9632C20.9109 21.9598 21.2855 21.8027 21.5625 21.5258C21.8394 21.2488 21.9965 20.8742 21.9999 20.4825C22.0033 20.0909 21.8528 19.7135 21.5807 19.4318L13.1305 10.9816L21.5807 2.53148C21.8528 2.24976 22.0033 1.87243 21.9999 1.48077C21.9965 1.08912 21.8394 0.714465 21.5625 0.437511C21.2855 0.160557 20.9109 0.00345986 20.5192 5.64678e-05C20.1276 -0.00334693 19.7502 0.147215 19.4685 0.419314L11.0184 8.86948L2.56819 0.419314C2.2852 0.153941 1.91006 0.00907799 1.52216 0.0153768C1.13426 0.0216757 0.764026 0.178643 0.489798 0.453064C0.215571 0.727485 0.0588655 1.09783 0.0528411 1.48574C0.0468167 1.87364 0.191945 2.24868 0.457519 2.53148L8.90619 10.9816L0.456025 19.4318C0.313356 19.5696 0.199559 19.7344 0.121273 19.9167C0.042987 20.0989 0.00177992 20.2949 5.63997e-05 20.4933C-0.00166712 20.6916 0.0361271 20.8883 0.111234 21.0719C0.186342 21.2555 0.297257 21.4222 0.43751 21.5625C0.577763 21.7027 0.744543 21.8137 0.92812 21.8888C1.1117 21.9639 1.30839 22.0017 1.50673 21.9999C1.70507 21.9982 1.90108 21.957 2.08333 21.8787C2.26557 21.8004 2.4304 21.6866 2.56819 21.544L11.0184 13.0938Z" fill="#96B6DC"/>
</svg>
