<svg width="74" height="74" viewBox="0 0 74 74" fill="none" xmlns="http://www.w3.org/2000/svg">
<g filter="url(#filter0_d_386_2462)">
<circle cx="37" cy="37" r="34" fill="white"/>
</g>
<path d="M52.525 46.5061C52.5317 46.6594 52.535 46.8134 52.535 46.9681C52.535 49.6285 51.4782 52.1801 49.597 54.0614C47.7159 55.9427 45.1645 56.9998 42.504 57.0001C40.4772 56.8136 38.514 56.1943 36.747 55.1841M30.668 49.6641C31.607 51.1691 36.728 49.6711 42.106 46.3181C47.484 42.9651 51.083 39.0271 50.144 37.5221M18 31.7681C18 29.1074 19.0569 26.5557 20.9383 24.6744C22.8197 22.793 25.3713 21.7361 28.032 21.7361C29.6671 21.6708 31.3001 21.9112 32.847 22.4451C35.1032 23.3421 37.0705 24.8404 38.535 26.7771C40.798 29.5071 25.498 45.1601 22.967 42.5821C21.4112 40.8865 20.1261 38.9612 19.157 36.8741C18.4115 35.2741 18.0169 33.5331 18 31.7681Z" stroke="#96B6DC" stroke-width="1.5" stroke-linecap="round" stroke-linejoin="round"/>
<path d="M36.746 55.184C34.5636 53.5236 32.5296 51.6766 30.667 49.664C29.729 48.159 33.328 44.22 38.706 40.867C44.084 37.514 49.206 36.016 50.144 37.522C50.144 37.522 52.519 43.438 52.524 46.507M40.268 42.063L40.382 41.54M36.857 44.45L35.881 44.727M34.046 47.75L34.994 47.052M39.473 46.495L39.599 45.915M44.84 41.701L45.745 41.412M44.597 39.928L45.529 39.198M38.444 24.442C39.257 23.687 42.034 21.073 42.548 18.924M47.744 18C45.452 20.82 43.385 23.754 40.124 26.074M47.315 23.191C45.018 23.926 41.212 27.729 39.72 29.163M43.184 37.058C44.855 35.2186 46.7817 33.629 48.905 32.338M47.935 35.418C50.4725 33.0847 52.8147 30.5476 54.938 27.832M55.049 32.046C53.4165 33.0027 51.9108 34.1608 50.567 35.493M28.769 40.127C23.348 35.623 18.88 29.567 21.011 24.603C29.248 22.07 34.964 30.4 36.354 32.281M48.585 30.777C48.585 30.777 51.772 25.79 52.097 25.767C50.463 26.642 46.547 27.083 46.547 27.083C39.264 31.44 22.868 51.936 22.868 51.936C22.868 51.936 41.704 33.293 48.586 30.776L48.585 30.777Z" stroke="#96B6DC" stroke-width="1.5" stroke-linecap="round" stroke-linejoin="round"/>
<path d="M38.337 48.3939C38.337 48.3939 42.253 55.7319 47.097 55.8889M47.433 42.2979C47.433 42.2979 52.309 49.0999 49.551 54.1079" stroke="#96B6DC" stroke-width="1.5" stroke-linecap="round" stroke-linejoin="round"/>
<defs>
<filter id="filter0_d_386_2462" x="0" y="0" width="74" height="74" filterUnits="userSpaceOnUse" color-interpolation-filters="sRGB">
<feFlood flood-opacity="0" result="BackgroundImageFix"/>
<feColorMatrix in="SourceAlpha" type="matrix" values="0 0 0 0 0 0 0 0 0 0 0 0 0 0 0 0 0 0 127 0" result="hardAlpha"/>
<feOffset/>
<feGaussianBlur stdDeviation="1.5"/>
<feComposite in2="hardAlpha" operator="out"/>
<feColorMatrix type="matrix" values="0 0 0 0 0.143914 0 0 0 0 0.1525 0 0 0 0 0.133056 0 0 0 0.13 0"/>
<feBlend mode="normal" in2="BackgroundImageFix" result="effect1_dropShadow_386_2462"/>
<feBlend mode="normal" in="SourceGraphic" in2="effect1_dropShadow_386_2462" result="shape"/>
</filter>
</defs>
</svg>
