<svg width="68" height="68" viewBox="0 0 68 68" fill="none" xmlns="http://www.w3.org/2000/svg">
<g filter="url(#filter0_d_386_1004)">
<circle cx="34" cy="34" r="28" fill="white"/>
</g>
<path d="M41.1203 25.2803C40.8039 25.2803 40.4945 25.3742 40.2314 25.55C39.9683 25.7258 39.7632 25.9757 39.6421 26.268C39.521 26.5604 39.4893 26.8821 39.5511 27.1925C39.6128 27.5028 39.7652 27.7879 39.989 28.0117C40.2127 28.2355 40.4978 28.3878 40.8082 28.4496C41.1185 28.5113 41.4403 28.4796 41.7326 28.3585C42.025 28.2374 42.2749 28.0324 42.4507 27.7692C42.6265 27.5061 42.7203 27.1968 42.7203 26.8803C42.7203 26.456 42.5518 26.049 42.2517 25.749C41.9516 25.4489 41.5447 25.2803 41.1203 25.2803ZM47.2537 28.507C47.2277 27.4007 47.0205 26.3062 46.6403 25.267C46.3013 24.3778 45.7736 23.5727 45.0937 22.907C44.4334 22.2236 43.6264 21.6992 42.7337 21.3737C41.6972 20.9819 40.6015 20.7699 39.4937 20.747C38.0803 20.667 37.627 20.667 34.0003 20.667C30.3737 20.667 29.9203 20.667 28.507 20.747C27.3992 20.7699 26.3034 20.9819 25.267 21.3737C24.3759 21.7025 23.5696 22.2264 22.907 22.907C22.2236 23.5672 21.6992 24.3742 21.3737 25.267C20.9819 26.3034 20.7699 27.3992 20.747 28.507C20.667 29.9203 20.667 30.3737 20.667 34.0003C20.667 37.627 20.667 38.0803 20.747 39.4937C20.7699 40.6015 20.9819 41.6972 21.3737 42.7337C21.6992 43.6264 22.2236 44.4334 22.907 45.0937C23.5696 45.7742 24.3759 46.2981 25.267 46.627C26.3034 47.0188 27.3992 47.2307 28.507 47.2537C29.9203 47.3337 30.3737 47.3337 34.0003 47.3337C37.627 47.3337 38.0803 47.3337 39.4937 47.2537C40.6015 47.2307 41.6972 47.0188 42.7337 46.627C43.6264 46.3014 44.4334 45.7771 45.0937 45.0937C45.7766 44.4304 46.3048 43.6246 46.6403 42.7337C47.0205 41.6945 47.2277 40.5999 47.2537 39.4937C47.2537 38.0803 47.3337 37.627 47.3337 34.0003C47.3337 30.3737 47.3337 29.9203 47.2537 28.507ZM44.8537 39.3337C44.8439 40.18 44.6907 41.0186 44.4003 41.8137C44.1874 42.3939 43.8455 42.9182 43.4003 43.347C42.9679 43.7877 42.4446 44.1289 41.867 44.347C41.0719 44.6373 40.2334 44.7906 39.387 44.8003C38.0537 44.867 37.5603 44.8803 34.0537 44.8803C30.547 44.8803 30.0537 44.8803 28.7203 44.8003C27.8415 44.8168 26.9665 44.6815 26.1337 44.4003C25.5814 44.1711 25.0821 43.8307 24.667 43.4003C24.2244 42.972 23.8868 42.4472 23.6803 41.867C23.3548 41.0605 23.1742 40.2029 23.147 39.3337C23.147 38.0003 23.067 37.507 23.067 34.0003C23.067 30.4937 23.067 30.0003 23.147 28.667C23.153 27.8017 23.3109 26.9443 23.6137 26.1337C23.8484 25.5709 24.2087 25.0692 24.667 24.667C25.0721 24.2085 25.5727 23.8445 26.1337 23.6003C26.9464 23.307 27.803 23.1538 28.667 23.147C30.0003 23.147 30.4937 23.067 34.0003 23.067C37.507 23.067 38.0003 23.067 39.3337 23.147C40.18 23.1567 41.0186 23.31 41.8137 23.6003C42.4196 23.8252 42.9634 24.1908 43.4003 24.667C43.8373 25.0766 44.1787 25.5773 44.4003 26.1337C44.6967 26.9456 44.85 27.8027 44.8537 28.667C44.9203 30.0003 44.9337 30.4937 44.9337 34.0003C44.9337 37.507 44.9203 38.0003 44.8537 39.3337ZM34.0003 27.1603C32.6481 27.163 31.3269 27.5664 30.2039 28.3195C29.0808 29.0727 28.2062 30.1419 27.6905 31.392C27.1748 32.6421 27.0413 34.0169 27.3067 35.3429C27.5721 36.6688 28.2246 37.8864 29.1818 38.8416C30.1389 39.7969 31.3577 40.447 32.6841 40.7099C34.0106 40.9727 35.3852 40.8365 36.6343 40.3184C37.8834 39.8003 38.9508 38.9236 39.7018 37.799C40.4528 36.6745 40.8537 35.3526 40.8537 34.0003C40.8554 33.1005 40.6793 32.2091 40.3353 31.3776C39.9914 30.5461 39.4864 29.7907 38.8495 29.1551C38.2126 28.5194 37.4563 28.0159 36.6241 27.6736C35.7919 27.3312 34.9002 27.1568 34.0003 27.1603ZM34.0003 38.4403C33.1222 38.4403 32.2637 38.1799 31.5336 37.692C30.8034 37.2042 30.2344 36.5107 29.8983 35.6994C29.5622 34.8881 29.4743 33.9954 29.6456 33.1341C29.817 32.2728 30.2398 31.4817 30.8608 30.8608C31.4817 30.2398 32.2728 29.817 33.1341 29.6456C33.9954 29.4743 34.8881 29.5622 35.6994 29.8983C36.5107 30.2344 37.2042 30.8034 37.692 31.5336C38.1799 32.2637 38.4403 33.1222 38.4403 34.0003C38.4403 34.5834 38.3255 35.1608 38.1024 35.6994C37.8792 36.2381 37.5522 36.7276 37.1399 37.1399C36.7276 37.5522 36.2381 37.8792 35.6994 38.1024C35.1608 38.3255 34.5834 38.4403 34.0003 38.4403Z" fill="#96B6DC"/>
<defs>
<filter id="filter0_d_386_1004" x="0" y="0" width="68" height="68" filterUnits="userSpaceOnUse" color-interpolation-filters="sRGB">
<feFlood flood-opacity="0" result="BackgroundImageFix"/>
<feColorMatrix in="SourceAlpha" type="matrix" values="0 0 0 0 0 0 0 0 0 0 0 0 0 0 0 0 0 0 127 0" result="hardAlpha"/>
<feOffset/>
<feGaussianBlur stdDeviation="3"/>
<feComposite in2="hardAlpha" operator="out"/>
<feColorMatrix type="matrix" values="0 0 0 0 0.705882 0 0 0 0 0.682353 0 0 0 0 0.654902 0 0 0 0.25 0"/>
<feBlend mode="normal" in2="BackgroundImageFix" result="effect1_dropShadow_386_1004"/>
<feBlend mode="normal" in="SourceGraphic" in2="effect1_dropShadow_386_1004" result="shape"/>
</filter>
</defs>
</svg>
