<svg width="68" height="68" viewBox="0 0 68 68" fill="none" xmlns="http://www.w3.org/2000/svg">
<g filter="url(#filter0_d_386_1012)">
<circle cx="34" cy="34" r="28" fill="white"/>
</g>
<g clip-path="url(#clip0_386_1012)">
<path fill-rule="evenodd" clip-rule="evenodd" d="M41.7213 23.5375C42.0301 23.4074 42.3683 23.3626 42.7004 23.4076C43.0325 23.4526 43.3464 23.5858 43.6096 23.7933C43.8728 24.0008 44.0755 24.2751 44.1967 24.5876C44.3179 24.9 44.3531 25.2393 44.2988 25.57L41.4637 42.7662C41.1887 44.425 39.3688 45.3762 37.8475 44.55C36.575 43.8587 34.685 42.7937 32.985 41.6825C32.135 41.1262 29.5313 39.345 29.8513 38.0775C30.1263 36.9937 34.5013 32.9212 37.0013 30.5C37.9825 29.5487 37.535 29 36.3763 29.875C33.4988 32.0475 28.8788 35.3512 27.3513 36.2812C26.0038 37.1012 25.3013 37.2412 24.4613 37.1012C22.9288 36.8462 21.5075 36.4512 20.3475 35.97C18.78 35.32 18.8563 33.165 20.3463 32.5375L41.7213 23.5375Z" fill="#96B6DC"/>
</g>
<defs>
<filter id="filter0_d_386_1012" x="0" y="0" width="68" height="68" filterUnits="userSpaceOnUse" color-interpolation-filters="sRGB">
<feFlood flood-opacity="0" result="BackgroundImageFix"/>
<feColorMatrix in="SourceAlpha" type="matrix" values="0 0 0 0 0 0 0 0 0 0 0 0 0 0 0 0 0 0 127 0" result="hardAlpha"/>
<feOffset/>
<feGaussianBlur stdDeviation="3"/>
<feComposite in2="hardAlpha" operator="out"/>
<feColorMatrix type="matrix" values="0 0 0 0 0.705882 0 0 0 0 0.682353 0 0 0 0 0.654902 0 0 0 0.25 0"/>
<feBlend mode="normal" in2="BackgroundImageFix" result="effect1_dropShadow_386_1012"/>
<feBlend mode="normal" in="SourceGraphic" in2="effect1_dropShadow_386_1012" result="shape"/>
</filter>
<clipPath id="clip0_386_1012">
<rect width="30" height="30" fill="white" transform="translate(17 18)"/>
</clipPath>
</defs>
</svg>
