<svg width="74" height="74" viewBox="0 0 74 74" fill="none" xmlns="http://www.w3.org/2000/svg">
<g filter="url(#filter0_d_386_2456)">
<circle cx="37" cy="37" r="34" fill="white"/>
</g>
<path d="M37.0003 26.0609L35.1945 24.2666C30.9557 20.0548 23.1833 21.5083 20.3776 26.8034C19.0604 29.294 18.7632 32.8898 21.1685 37.479C23.4856 41.8977 28.3062 47.1904 37.0003 52.9555C45.6945 47.1904 50.5126 41.8977 52.8322 37.479C55.2375 32.8874 54.9428 29.294 53.6231 26.8034C50.8174 21.5083 43.045 20.0524 38.8062 24.2642L37.0003 26.0609ZM37.0003 55.8891C-1.61727 31.2222 25.1101 11.9697 36.5571 22.1534C36.7082 22.2881 36.856 22.4269 37.0003 22.5697C37.1422 22.426 37.2901 22.2879 37.4436 22.1559C48.8881 11.9648 75.618 31.2197 37.0003 55.8891Z" fill="#96B6DC"/>
<defs>
<filter id="filter0_d_386_2456" x="0" y="0" width="74" height="74" filterUnits="userSpaceOnUse" color-interpolation-filters="sRGB">
<feFlood flood-opacity="0" result="BackgroundImageFix"/>
<feColorMatrix in="SourceAlpha" type="matrix" values="0 0 0 0 0 0 0 0 0 0 0 0 0 0 0 0 0 0 127 0" result="hardAlpha"/>
<feOffset/>
<feGaussianBlur stdDeviation="1.5"/>
<feComposite in2="hardAlpha" operator="out"/>
<feColorMatrix type="matrix" values="0 0 0 0 0.143914 0 0 0 0 0.1525 0 0 0 0 0.133056 0 0 0 0.13 0"/>
<feBlend mode="normal" in2="BackgroundImageFix" result="effect1_dropShadow_386_2456"/>
<feBlend mode="normal" in="SourceGraphic" in2="effect1_dropShadow_386_2456" result="shape"/>
</filter>
</defs>
</svg>
