<svg width="74" height="74" viewBox="0 0 74 74" fill="none" xmlns="http://www.w3.org/2000/svg">
<g filter="url(#filter0_d_386_2459)">
<circle cx="37" cy="37" r="34" fill="white"/>
</g>
<path d="M37 19C38.5341 20.8535 39.9401 22.674 41.218 24.4614C42.4959 26.2475 43.6528 28.002 44.6887 29.7249L56 21.2473V37.044C56 39.6599 55.5004 42.1214 54.5011 44.4284C53.5019 46.7354 52.1458 48.7413 50.433 50.4459C48.723 52.1533 46.7125 53.5055 44.4016 54.5025C42.0892 55.5008 39.622 56 37 56C34.378 56 31.9108 55.5015 29.5984 54.5046C27.2875 53.5062 25.277 52.1533 23.567 50.4459C21.8556 48.7399 20.5003 46.734 19.501 44.4284C18.5003 42.1214 18 39.6599 18 37.044V21.2473L29.3113 29.7249C30.3472 28.0371 31.5041 26.291 32.782 24.4867C34.0599 22.6838 35.4659 20.8549 37 19ZM20.1111 25.4598V37.044C20.1111 39.7231 20.7057 42.1853 21.895 44.4305C23.0843 46.6758 24.6803 48.5208 26.683 49.9657C25.9638 49.074 25.3924 48.0701 24.9688 46.9538C24.5451 45.8375 24.3333 44.6404 24.3333 43.3627C24.3333 41.7662 24.6591 39.9738 25.3108 37.9855C25.961 35.9972 26.93 33.8475 28.2178 31.5362L20.1111 25.4598ZM37 22.3004C33.6433 26.3304 31.0453 30.2283 29.2058 33.9942C27.3649 37.7615 26.4444 40.8843 26.4444 43.3627C26.4444 46.2763 27.474 48.7602 29.533 50.8145C31.592 52.8687 34.081 53.8952 37 53.8938C39.9204 53.8938 42.4101 52.8666 44.4691 50.8124C46.5281 48.7581 47.557 46.2749 47.5556 43.3627C47.5556 40.8843 46.6351 37.7573 44.7942 33.9816C42.9547 30.2072 40.3567 26.3135 37 22.3004ZM53.8889 25.4598L45.7822 31.5236C47.07 33.8348 48.0397 35.9846 48.6913 37.9728C49.3416 39.9625 49.6667 41.7591 49.6667 43.3627C49.6667 44.6404 49.4549 45.8375 49.0312 46.9538C48.609 48.0701 48.0376 49.074 47.317 49.9657C49.3197 48.5194 50.9157 46.6744 52.105 44.4305C53.2943 42.1839 53.8889 39.7217 53.8889 37.044V25.4598Z" fill="#96B6DC"/>
<defs>
<filter id="filter0_d_386_2459" x="0" y="0" width="74" height="74" filterUnits="userSpaceOnUse" color-interpolation-filters="sRGB">
<feFlood flood-opacity="0" result="BackgroundImageFix"/>
<feColorMatrix in="SourceAlpha" type="matrix" values="0 0 0 0 0 0 0 0 0 0 0 0 0 0 0 0 0 0 127 0" result="hardAlpha"/>
<feOffset/>
<feGaussianBlur stdDeviation="1.5"/>
<feComposite in2="hardAlpha" operator="out"/>
<feColorMatrix type="matrix" values="0 0 0 0 0.143914 0 0 0 0 0.1525 0 0 0 0 0.133056 0 0 0 0.13 0"/>
<feBlend mode="normal" in2="BackgroundImageFix" result="effect1_dropShadow_386_2459"/>
<feBlend mode="normal" in="SourceGraphic" in2="effect1_dropShadow_386_2459" result="shape"/>
</filter>
</defs>
</svg>
