<svg width="230" height="68" viewBox="0 0 230 68" fill="none" xmlns="http://www.w3.org/2000/svg">
<g filter="url(#filter0_d_386_2753)">
<path d="M8.35346 39.2789L8.30198 39.015C8.21171 39.0326 7.84336 39.058 7.33925 39.0655C6.84579 39.0728 6.25093 39.0628 5.72224 39.0168C5.45775 38.9938 5.21432 38.9622 5.01061 38.9205C4.80165 38.8778 4.65547 38.8286 4.57156 38.7803C4.56595 38.7771 4.56094 38.7741 4.55646 38.7713C4.55713 38.7705 4.55782 38.7696 4.55853 38.7688C4.58892 38.7332 4.64207 38.6848 4.72886 38.6245L4.72893 38.6246L4.73526 38.6199C4.80953 38.565 4.90851 38.5256 5.04266 38.4878C5.08151 38.4768 5.12891 38.4647 5.18012 38.4517C5.27842 38.4266 5.39078 38.398 5.48371 38.3668C5.77932 38.2675 6.19408 38.0382 6.28585 37.5988L6.28599 37.5988L6.2875 37.5902C6.35769 37.1893 6.13273 36.9028 5.91323 36.705C5.80268 36.6054 5.67756 36.5137 5.56559 36.4316L5.56462 36.4309C5.44843 36.3458 5.34575 36.2705 5.25848 36.1928C4.84882 35.8162 4.73043 35.1341 4.98388 34.6232L4.98393 34.6232L4.98623 34.6183C5.22629 34.1089 5.79578 33.7727 6.39365 33.7591C6.76896 33.7526 7.13684 33.8685 7.51922 34.0483C7.76597 34.1644 7.998 34.2959 8.23819 34.432C8.38219 34.5136 8.52912 34.5969 8.6839 34.6795L8.68387 34.6795L8.68948 34.6824C8.6937 34.6845 8.69818 34.6868 8.70291 34.6892C8.78537 34.7312 8.94338 34.8117 9.13402 34.7857C9.42887 34.7504 9.55624 34.4949 9.60745 34.3608C9.74095 34.0635 9.80971 33.7475 9.86819 33.4547C9.87524 33.4193 9.88215 33.3844 9.88898 33.3498C9.94105 33.0861 9.98904 32.8431 10.0698 32.6115C10.1552 32.3663 10.3096 32.1277 10.4963 31.9664C10.6822 31.8058 10.8764 31.7395 11.0617 31.7739L11.0617 31.774L11.0662 31.7747C11.3124 31.8161 11.5305 32.0329 11.7417 32.3366C12.1819 32.9958 12.411 33.7869 12.411 34.5958C12.411 35.127 12.3119 35.663 12.1385 36.1903C11.51 37.6754 9.88462 38.7048 8.30175 39.015L8.35346 39.2789ZM8.35346 39.2789C9.99871 38.9564 11.7201 37.8816 12.3904 36.2848L4.74303 34.5037C4.43835 35.1179 4.57546 35.9316 5.07817 36.3923C5.17573 36.4792 5.28807 36.5616 5.40063 36.644C5.74507 36.8965 6.09157 37.1504 6.02267 37.5438C5.96174 37.8356 5.6723 38.0198 5.39809 38.1119C5.31267 38.1406 5.22283 38.1634 5.13269 38.1862C4.93345 38.2366 4.73279 38.2874 4.57546 38.4037C3.00637 39.4938 7.88121 39.371 8.35346 39.2789ZM4.52203 38.7446C4.52232 38.7446 4.52382 38.746 4.52571 38.7489C4.52269 38.746 4.52175 38.7446 4.52203 38.7446Z" fill="#546B9E" fill-opacity="0.35" stroke="#96B6DC" stroke-width="0.537709"/>
<path d="M9.89206 38.1276C8.1554 38.235 6.4035 38.2197 4.65161 38.0815C4.20983 38.0508 3.73758 37.9894 3.3872 37.7283C3.03682 37.4673 2.85401 36.8992 3.14346 36.5614C3.31103 36.3465 3.60047 36.285 3.85945 36.239C5.97696 35.8551 8.21633 36.2543 10.0596 37.3445C9.46551 37.8358 8.53624 37.5595 7.95736 37.0528C7.37847 36.5461 6.99762 35.8398 6.4035 35.3484C5.85509 34.8878 5.10863 34.55 4.95629 33.8591C4.78871 33.0299 5.70275 32.2929 6.54061 32.3697C7.37847 32.4465 8.064 33.0606 8.61241 33.7055C9.49598 34.765 10.1663 35.9933 10.5928 37.3138C10.0901 35.9472 9.90729 34.4732 10.0596 33.0299C10.1663 32.0012 10.6538 30.7882 11.6744 30.6654C12.4361 30.5732 13.1521 31.2335 13.3654 31.9705C13.5787 32.7228 13.4263 33.5213 13.1978 34.2736C12.8322 35.4866 12.2838 36.6535 11.5983 37.713C11.1108 38.4654 10.1967 39.2484 9.41981 38.8031C8.77999 38.4346 8.82569 37.3445 9.43504 36.9299C10.0444 36.5 10.9584 36.7303 11.4307 37.2984C11.7506 37.6669 11.9182 38.2043 11.7658 38.6803C11.6135 39.1563 11.0803 39.4941 10.6081 39.3406C10.1358 39.187 9.93776 38.4807 10.2881 38.1583C10.3338 38.1276 11.4916 40.6303 11.6135 40.9067C11.9639 41.7358 12.1467 42.6417 12.3599 43.5169C12.6037 44.4842 12.101 45.5283 12.0705 46.511C12.04 47.9236 12.756 49.2901 12.7408 50.7027C12.4666 50.0272 12.1924 49.3362 11.9029 48.6606C11.6744 48.1079 11.4459 47.5551 11.0651 47.0945C10.6233 46.5724 10.0139 46.1886 9.52645 45.6972C8.96279 45.1291 8.2468 44.8988 7.46987 44.7913C6.98239 44.7299 6.49491 44.7146 6.02266 44.8681C5.56564 45.0216 5.13909 45.3594 4.97152 45.8201C4.80395 46.2807 4.94105 46.8642 5.33713 47.1252C5.68751 47.3555 6.14453 47.3248 6.57108 47.2634C7.80502 47.0945 9.1456 46.3575 10.3338 46.8642C11.0194 47.1559 11.7963 48.0925 11.8268 48.8756C11.324 48.6913 11.1869 48.0772 10.8823 47.6472C10.669 47.3402 10.3643 47.1098 10.0596 46.8795C9.72449 46.6185 9.37411 46.3575 8.97803 46.2039C8.46008 45.989 7.88119 45.9583 7.33277 45.9276" stroke="#96B6DC" stroke-width="0.537709" stroke-miterlimit="10" stroke-linecap="round" stroke-linejoin="round"/>
<path d="M54.2353 56.2375L54.2352 56.2375L54.2385 56.2417C54.5658 56.664 54.5919 57.1501 54.2601 57.4845C54.0336 57.7128 53.6787 57.8645 53.2606 58.0206C51.7476 58.5792 50.0826 58.9272 48.3864 59.0331L48.3864 59.033L48.3836 59.0333C47.3507 59.1087 46.2531 59.0703 45.2723 58.8655C44.288 58.66 43.4481 58.2926 42.8986 57.7322C42.4564 57.2722 42.2278 56.7079 42.0488 56.1213L42.0487 56.1212C41.8148 55.3568 41.8641 54.4935 42.2797 53.837C42.6862 53.1949 43.4755 52.7004 44.8339 52.7222C47.3887 52.7672 50.6168 54.0927 52.6847 55.1348C53.3283 55.4591 53.9123 55.8034 54.2353 56.2375Z" stroke="#96B6DC" stroke-width="0.537709"/>
<path d="M30.532 51.4727L30.5339 51.4715C32.3818 50.376 33.9881 48.7854 35.4817 47.2032C35.4819 47.2029 35.4822 47.2026 35.4824 47.2024L35.5141 47.1694C35.9688 46.6956 36.3784 46.2688 36.9108 46.0542L36.9108 46.0542L36.9162 46.052C37.4565 45.8205 38.0935 45.8978 38.4192 46.2717C38.6359 46.5273 38.7063 46.88 38.7684 47.302C38.9645 48.6707 39.0799 50.3499 38.895 51.9424C38.7095 53.5398 38.2261 55.0142 37.2572 56.0124L37.2571 56.0125C35.29 58.0402 32.6613 59.3225 29.9044 59.851L29.9043 59.851C26.0461 60.5925 22.0392 59.9893 18.1458 59.1308L18.1443 59.1305C16.499 58.7774 14.8803 58.3416 13.6243 57.3406C11.1915 55.3961 11.3721 52.1052 12.1012 49.2389C12.1126 49.2004 12.1224 49.1659 12.1312 49.1345C12.1642 49.0179 12.1849 48.9444 12.2338 48.8705L12.2338 48.8705L12.2358 48.8674C12.3409 48.7037 12.5546 48.6154 12.7423 48.6583C12.7835 48.6721 12.849 48.6938 12.9171 48.7027C12.9963 48.7131 13.1027 48.7102 13.2078 48.6494C13.2712 48.6144 13.3127 48.5647 13.3326 48.539C13.358 48.506 13.3785 48.4715 13.3929 48.4424C13.4459 48.3358 13.4863 48.2288 13.5211 48.1309C13.5323 48.0993 13.5427 48.0694 13.5527 48.0407C13.5753 47.976 13.5958 47.9171 13.6194 47.8569C13.6846 47.6909 13.7549 47.5673 13.871 47.4713C14.1237 47.2656 14.5694 47.1624 14.9687 47.1325C16.0129 47.0627 17.0094 47.6101 17.99 48.2278C19.585 49.2383 21.1492 50.2944 22.6825 51.4115L22.6838 51.4124C22.7354 51.4496 22.7873 51.4872 22.8395 51.5249C23.4208 51.9456 24.0365 52.3913 24.7508 52.6313L24.7521 52.6317C25.7959 52.9769 26.9359 52.8739 27.9549 52.5895C28.8821 52.336 29.7263 51.9411 30.532 51.4727ZM22.9923 51.3035C22.9418 51.2671 22.8914 51.2306 22.8408 51.1942L27.8832 52.3304C26.893 52.6068 25.8114 52.6989 24.8365 52.3765C24.163 52.1502 23.58 51.7286 22.9923 51.3035Z" fill="#546B9E" fill-opacity="0.25" stroke="#96B6DC" stroke-width="0.537709"/>
<path d="M29.6953 2.32831L29.6953 2.32832L29.6975 2.32911C30.514 2.61868 31.271 3.01872 31.6014 3.69655C31.8499 4.2252 31.7926 4.88328 31.6713 5.54129C31.2681 7.57147 30.2596 9.54905 28.5612 10.6317L28.5606 10.6321C27.2392 11.4796 25.7166 11.3486 24.3704 10.6325C23.0199 9.91417 21.8817 8.62148 21.372 7.21967C20.9372 6.02167 20.9747 4.75024 21.6913 3.70192C22.5055 2.52166 23.9191 1.82966 25.3539 1.6673C26.8055 1.50476 28.2848 1.81411 29.6953 2.32831Z" fill="#546B9E" fill-opacity="0.3" stroke="#96B6DC" stroke-width="0.537709"/>
<path d="M14.0385 28.5161L14.0386 28.5162C14.859 32.0539 15.8619 35.5304 17.032 38.9461L14.0385 28.5161ZM14.0385 28.5161C13.4116 25.8191 12.9738 22.917 14.3553 20.6887M14.0385 28.5161L14.3553 20.6887M14.3553 20.6887C15.7797 18.4035 18.6801 17.5415 21.4586 17.0184L21.4594 17.0182C24.1772 16.4979 26.9256 16.1153 29.6892 15.8704L14.3553 20.6887ZM38.0299 16.2089L38.0298 16.2089C36.8923 15.8021 35.4243 15.6603 33.9198 15.6507C32.4198 15.6412 30.9075 15.763 29.6893 15.8704L38.0299 16.2089ZM38.0299 16.2089C39.2099 16.6307 39.7753 17.6717 39.9958 18.9458C40.2166 20.2216 40.0777 21.6716 39.8963 22.7915C39.5336 25.023 38.9323 27.2011 38.2817 29.3791C38.1287 29.8914 37.9728 30.4041 37.8167 30.9175C37.3107 32.5818 36.8025 34.2535 36.3818 35.9435L36.3816 35.9443C36.1492 36.8892 36.0124 37.8474 35.8946 38.7905C35.8686 38.9991 35.8434 39.2067 35.8185 39.4133C35.7299 40.145 35.643 40.8636 35.5209 41.5688C35.2087 43.3713 34.6734 45.0381 33.3396 46.449M38.0299 16.2089L20.6014 47.601M20.6014 47.601C21.9115 48.5837 24.1966 48.8908 25.7657 48.9829C28.5535 49.1518 31.6003 48.6758 33.535 46.6337L33.3398 46.4488C33.3397 46.4488 33.3397 46.4489 33.3396 46.449M20.6014 47.601C19.5101 46.7911 18.9758 45.1914 18.5079 43.7908C18.3815 43.4122 18.2599 43.0483 18.1335 42.7183L20.6014 47.601ZM33.3396 46.449C31.488 48.4032 28.5439 48.8818 25.782 48.7145L25.7815 48.7145C25.0053 48.6689 24.0576 48.5704 23.1459 48.3637C22.2297 48.156 21.3737 47.8441 20.7628 47.3859L20.7616 47.3851C20.1293 46.9158 19.6838 46.14 19.3191 45.2532C19.1381 44.813 18.9805 44.355 18.8298 43.9053C18.8075 43.839 18.7854 43.7727 18.7633 43.7067C18.637 43.3285 18.5133 42.958 18.3846 42.6221L18.3841 42.6208C17.9128 41.4103 17.4571 40.1855 17.0321 38.9461L33.3396 46.449Z" stroke="#96B6DC" stroke-width="0.537709"/>
<path d="M35.3478 41.0143C35.5001 41.6746 36.0638 42.1505 36.4446 42.734C37.2825 44.0084 37.0845 45.6667 37.054 47.1868C37.0083 48.7068 37.2977 50.4879 38.6078 51.2556C38.9887 51.4706 39.4305 51.5934 39.7047 51.9312C40.314 52.6836 39.6437 53.7738 38.943 54.4186C35.6982 57.3974 31.2499 58.5643 26.9539 59.4856C24.6384 59.9769 22.2924 60.4375 19.9464 60.284C16.6863 60.069 14.1727 58.4875 11.9943 56.1076C11.7048 55.7852 11.4154 55.4474 11.2935 55.0328C11.1107 54.4493 11.263 53.8198 11.3392 53.2056C11.4306 52.5147 11.3545 51.8084 11.4306 51.1175C11.522 50.3958 11.7201 49.6742 11.9333 48.9986C11.9943 48.8143 12.0552 48.6301 12.1771 48.4919C12.299 48.3537 12.5122 48.2769 12.6798 48.369C13.2587 48.6608 13.4263 50.2576 13.6091 50.8104C13.9137 51.7777 14.2489 52.7297 14.6907 53.6202C15.4067 55.0789 16.473 56.4454 17.905 57.2131C18.7429 57.6738 19.6874 57.9041 20.6166 58.0883C24.6232 58.856 28.9039 58.6564 32.5752 56.86C34.8908 55.7238 36.8864 53.9734 38.3336 51.8238C37.8004 51.0253 36.536 51.1789 35.82 51.8238C35.1041 52.4533 34.7537 53.3899 34.251 54.2037C33.3826 55.5702 32.0116 56.5836 30.4577 57.0135C28.9039 57.4434 27.2129 57.2592 25.7809 56.5375C24.7603 56.0155 23.8615 55.2324 22.7799 54.8793C21.8506 54.5722 20.8604 54.6029 19.8854 54.5415C18.9104 54.4801 17.8898 54.2805 17.1586 53.6356C16.7015 53.2364 16.4121 52.6836 16.1227 52.1462C15.2086 50.4726 14.3098 48.8143 13.3958 47.1407C13.2892 46.9411 13.1825 46.7415 13.1977 46.5265C13.213 46.2194 13.4567 45.9738 13.6852 45.7895C14.4012 45.1907 15.2086 44.6994 16.0769 44.3462C16.4273 44.1927 16.8386 44.0698 17.2043 44.2234C17.448 44.3155 17.6308 44.5305 17.8745 44.6379C18.1183 44.7301 18.4839 44.6379 18.4991 44.3769C18.5296 44.0238 17.966 43.9316 17.8441 43.6092C17.6917 43.2407 18.9257 42.2734 19.1542 41.9049C19.6417 41.1218 19.9159 40.2005 20.0225 39.2793C20.2358 37.4214 19.7788 35.6096 19.6721 33.7671C19.5655 31.8939 19.3827 30.0206 19.1237 28.1781C19.0019 27.2876 18.8495 26.397 18.7124 25.5218C18.423 25.4911 18.2859 25.8596 18.2554 26.1513C18.1183 27.7175 18.6667 29.2529 19.0476 30.7883C19.6721 33.3525 19.794 36.0242 19.4132 38.6344C19.1847 38.6958 19.0171 38.4348 18.9257 38.2045C17.4023 34.2738 16.473 30.1281 15.559 26.0131C15.3 24.8769 15.0563 23.7407 14.9649 22.5891C14.8735 21.4222 14.9953 20.1478 15.7723 19.2726C16.3055 18.6738 17.0824 18.3667 17.8288 18.0903C19.6874 17.4301 21.6068 16.9695 23.4197 16.2017C25.1106 15.4801 25.5067 14.3132 26.0551 12.6395C26.0856 12.5474 26.1161 12.4553 26.0856 12.3632C26.0094 12.1328 25.6895 12.1482 25.4458 12.1636C24.3489 12.225 23.4654 11.2884 22.8408 10.3825C21.8963 9.01592 21.1041 7.46513 21.0432 5.80687C20.9975 4.82419 21.2565 3.74939 22.0334 3.13521C22.8103 2.52104 23.9224 2.52104 24.8974 2.75136C25.263 2.84348 25.6438 2.95096 25.9333 3.18128C26.2227 3.41159 26.4207 3.73403 26.5426 4.08718C26.8321 4.96238 26.5274 5.99112 25.8876 6.65135C25.2325 7.31159 24.288 7.61868 23.374 7.57261C22.2924 7.52655 21.226 6.98915 20.6471 6.08324C20.053 5.17734 20.0225 3.90293 20.6471 3.02773C21.3479 2.04506 22.658 1.73797 23.8462 1.72262C24.5774 1.70726 25.3544 1.79939 25.8876 2.29073C26.7254 3.0738 26.5122 4.57852 25.918 5.45372C25.6286 5.88364 25.1563 6.22143 24.6536 6.25214C24.547 6.2675 24.4251 6.25214 24.3185 6.20608C24.1661 6.12931 24.0747 5.94505 24.029 5.77616C23.9072 5.30017 24.0138 4.79348 24.2271 4.34821C24.4403 3.90293 24.7603 3.53443 25.0802 3.16592C25.7048 2.45962 26.375 1.76868 27.2129 1.38482C28.066 1.00096 29.041 0.970255 29.9702 1.01632C30.6862 1.06238 31.4175 1.15451 32.0725 1.43088C32.6209 1.6612 33.1084 2.0297 33.4893 2.49033C33.8549 2.92025 34.1138 3.42695 34.3424 3.94899C34.4642 4.24073 34.5861 4.54781 34.6927 4.83954C34.7994 5.11592 34.8908 5.3923 34.8603 5.68403C34.8146 6.16001 34.4185 6.51316 33.9767 6.71277C33.5502 6.91238 33.0779 6.98915 32.6514 7.18875C31.9354 7.5112 31.7221 8.15608 31.3565 8.7856C30.9452 9.47655 30.5491 10.1828 30.3206 10.9659C30.0921 11.7336 30.0616 12.5935 30.3816 13.3305C30.5948 13.8065 30.9452 14.221 31.3261 14.5742C32.7276 15.9254 34.5861 16.8006 36.5208 17.0002C37.4501 17.0923 38.4707 17.0616 39.2477 17.599C40.1617 18.2285 40.4664 19.4108 40.6949 20.5009C40.9386 21.6525 41.2585 22.8041 41.3042 23.971C41.3652 25.2608 41.3652 26.5506 41.3347 27.8403C41.3042 29.2222 41.2585 30.5887 41.2128 31.9706C41.1367 34.0435 41.2738 36.0702 41.3956 38.1431C41.4109 38.2813 41.4109 38.4501 41.3042 38.5576C41.2433 38.619 41.1519 38.6498 41.0605 38.6651C40.7863 38.7419 40.4968 38.8186 40.2226 38.8801C40.0398 38.9261 39.857 38.9722 39.6742 38.9568C39.4914 38.9415 39.3086 38.8186 39.2477 38.6498C39.1715 38.4194 39.3238 38.1738 39.5371 38.0663C39.7504 37.9588 39.9941 37.9742 40.2226 37.9895C40.6796 38.0356 41.1519 38.1584 41.4413 38.5269C41.6241 38.7572 41.7003 39.049 41.7613 39.3407C42.5839 42.8722 42.7819 46.4805 43.6655 49.9966C43.8331 50.6722 44.0159 51.3478 44.2291 52.0234C44.3967 52.5915 44.5186 53.0367 45.0518 53.3899C45.3107 53.5742 45.6154 53.6816 45.9201 53.7584C46.6056 53.9427 47.2454 53.8659 47.931 53.958C48.5251 54.0348 49.0735 54.2651 49.6524 54.434C50.3836 54.649 51.1453 54.7411 51.907 54.7257C52.0441 54.7257 52.2269 54.7564 52.2422 54.8946C52.2422 54.9253 52.2422 54.9714 52.2269 55.0021C52.1508 55.1864 51.9832 55.3245 51.7851 55.3553C52.7449 55.6009 53.7046 55.8466 54.6643 56.0923C54.9233 56.1537 55.426 56.4608 55.1518 56.7832C55.2889 56.8753 55.5327 56.9675 55.5784 57.121C55.6241 57.2745 55.5479 57.4434 55.4108 57.5202C55.2737 57.6123 55.1214 57.6277 54.969 57.6277C54.8167 57.6277 54.5272 57.5509 54.3901 57.597C54.253 57.643 54.2378 57.8119 54.0855 57.8734C53.9788 57.9194 53.8569 57.9194 53.7351 57.9194C52.6839 57.9041 51.709 57.4127 50.6731 57.2131C50.7492 57.4434 51.0234 57.5356 51.252 57.597C51.6937 57.7198 52.1203 57.8887 52.5316 58.073C52.5925 58.1037 52.6687 58.1497 52.6992 58.2112C52.7753 58.4108 52.4554 58.5182 52.3031 58.5336C52.0898 58.5489 51.8918 58.4568 51.6937 58.4108C50.6883 58.2112 49.7438 57.858 48.7536 57.6584C47.8548 57.4742 46.9408 57.2745 46.042 57.121C45.1889 56.9828 44.3967 56.9214 43.635 56.4454C43.4522 56.3379 43.2694 56.1997 43.1018 56.0615C42.7057 55.7238 42.3858 55.3245 42.0507 54.9253C41.7003 54.4954 41.7308 54.0655 41.6546 53.5434C41.548 52.8218 41.289 52.1155 41.0453 51.4245C39.8875 48.2155 38.6383 45.0218 37.6633 41.7513C37.2673 40.4001 36.9321 39.0183 36.9473 37.6057C36.9626 36.3159 37.252 35.0261 37.1759 33.7364C37.1149 32.8151 36.8712 31.8939 37.054 30.9879C37.2216 30.2049 37.709 29.5293 37.9071 28.7616C38.1965 27.6868 37.9223 26.4584 38.4707 25.5065C38.7449 25.0305 39.202 24.6466 39.2477 24.1092C38.9735 24.0324 38.7297 24.3395 38.6078 24.6006C37.7243 26.5198 37.6176 28.7002 37.0692 30.7576C36.4903 32.9226 35.424 34.934 34.9517 37.1297C34.6318 38.5883 34.5861 40.1238 33.9615 41.4749C35.1193 41.7974 35.5001 43.3328 35.1193 44.4844C34.7384 45.6206 33.8701 46.5265 33.2455 47.5553C32.3163 49.0753 31.9202 50.8718 31.0366 52.4226C30.8995 52.6682 30.7319 52.9139 30.473 53.0521C30.0616 53.2824 29.5437 53.1442 29.1019 52.9907C26.177 52.008 23.3435 50.7797 20.6319 49.321C20.1444 49.06 19.6569 48.7836 19.3218 48.3537C18.5753 47.4017 18.7124 45.9431 17.8745 45.0832C17.7831 44.9911 17.7222 45.0372 17.6156 45.1139C17.5089 45.1907 17.4785 45.3289 17.4937 45.4671C17.5089 45.5899 17.5699 45.7127 17.6308 45.8202C17.8745 46.2962 18.7124 47.2482 18.4077 47.8316C18.2859 48.0773 17.9355 48.108 17.6765 48.062C17.25 47.9852 16.8539 47.7549 16.5644 47.4324C16.3207 47.1714 16.1379 46.849 15.8637 46.634C15.6352 46.4651 15.361 46.3883 15.0715 46.3116C14.9039 46.2655 14.7059 46.2348 14.5688 46.3423C14.3251 46.4958 14.4012 46.895 14.6297 47.0793C14.843 47.2635 15.1477 47.3096 15.4219 47.4017C15.818 47.5245 16.1836 47.7549 16.4883 48.0466C16.534 48.0927 16.5797 48.1387 16.6406 48.1387C16.7015 48.1387 16.7625 48.0619 16.732 48.0159" stroke="#96B6DC" stroke-width="0.537709" stroke-miterlimit="10" stroke-linecap="round" stroke-linejoin="round"/>
<path d="M32.621 10.9048C32.6057 11.0123 32.5905 11.1198 32.5143 11.2119C32.4534 11.3041 32.3163 11.3501 32.2249 11.2887C32.1944 11.2733 32.1639 11.2273 32.1335 11.1966C31.8288 10.7359 31.7983 10.1678 31.7831 9.61508C31.7679 9.3387 31.7679 9.06232 31.7526 8.78594C31.7374 8.50957 31.7679 8.17177 32.0116 8.04894C32.301 7.91075 32.5448 8.03358 32.7124 8.24854C32.7581 8.30996 33.1694 8.83201 33.1694 8.86272C33.2151 8.24854 32.7581 7.71114 32.5753 7.11232C32.362 6.37532 32.6362 5.51547 33.2455 5.05484C33.4588 4.88595 33.794 4.77847 33.9768 4.99343C34.0377 5.0702 34.0682 5.16232 34.0834 5.25445C34.251 5.88398 34.4338 6.45209 34.6623 7.03555C34.8146 7.40406 34.9822 7.80327 34.8756 8.18713C34.7842 8.52492 34.4947 8.8013 34.4947 9.15445C34.4947 9.3387 34.5709 9.49224 34.6318 9.66114C34.7994 10.1064 34.906 10.5824 34.8451 11.0584C34.7689 11.7033 34.4338 12.2714 34.1291 12.8395C33.7635 13.5304 33.4284 14.2367 33.1541 14.9584C33.0932 15.1273 33.0018 15.3115 32.8342 15.3422C32.7276 15.3576 32.621 15.3115 32.5143 15.2501C32.1335 15.0352 31.7374 14.8048 31.5394 14.421C31.4175 14.1907 31.3718 13.9296 31.3261 13.6686C31.2499 13.208 31.1585 12.7166 31.2956 12.2714C31.3261 12.1792 31.3718 12.0718 31.4784 12.0564C31.5241 12.0411 31.5851 12.0718 31.6155 12.0871C31.8745 12.256 31.8288 12.6399 31.7526 12.947C31.6308 13.4537 31.4936 13.9603 31.3718 14.467C31.4022 14.3135 31.4327 14.1446 31.4632 13.9911" stroke="#96B6DC" stroke-width="0.537709" stroke-miterlimit="10" stroke-linecap="round" stroke-linejoin="round"/>
<path d="M24.5775 3.16601C24.3185 3.25814 24.0747 3.38097 23.8462 3.50381C23.2978 3.81089 22.8103 4.24082 22.5361 4.79357C22.2467 5.34633 22.201 6.05262 22.5057 6.59003C22.9017 7.32703 23.8462 7.63412 24.6536 7.48058C25.461 7.32703 26.1618 6.77428 26.695 6.14475C27.0301 5.74554 27.3348 5.26955 27.4262 4.74751C27.5176 4.22546 27.3653 3.62664 26.9539 3.3042C26.7864 3.18137 26.6036 3.1046 26.4055 3.04318C25.6438 2.84357 24.7907 3.08924 24.1661 3.58058C23.5416 4.07192 23.1302 4.80892 22.9017 5.57664C22.7951 5.9605 22.7189 6.35971 22.7799 6.74357C22.9017 7.54199 23.6177 8.18687 24.4099 8.32506C25.202 8.46325 26.0399 8.17152 26.6493 7.63412C27.2434 7.11207 27.6699 6.34436 27.609 5.54593" stroke="#96B6DC" stroke-width="0.537709" stroke-miterlimit="10" stroke-linecap="round" stroke-linejoin="round"/>
<path d="M30.1987 26.5351C30.0311 24.3395 29.7112 22.1592 29.2695 20.0095C29.1781 19.5489 29.0714 19.0115 29.3913 18.6123C30.214 18.8733 30.4425 22.1284 30.5796 22.9269C30.8385 24.5698 30.9604 26.2434 30.869 27.917C30.5339 33.7056 27.609 39.2485 28.1269 45.0217" stroke="#96B6DC" stroke-width="0.537709" stroke-miterlimit="10" stroke-linecap="round" stroke-linejoin="round"/>
<path d="M54.0399 35.825L53.7731 35.7913C53.7367 36.0801 53.5056 36.3168 53.1693 36.4276C52.8326 36.5386 52.4591 36.4979 52.21 36.3043C52.0548 36.1819 51.9306 36.0269 51.7869 35.8475C51.7317 35.7786 51.6737 35.7061 51.6099 35.6305C51.3988 35.3803 51.1269 35.1048 50.7263 35.0241C50.2951 34.9371 49.9423 35.0619 49.6469 35.2635C49.4053 35.4284 49.1873 35.6562 48.9915 35.8608C48.9596 35.8941 48.9283 35.9268 48.8976 35.9585C48.6653 36.1985 48.4571 36.3933 48.226 36.5017C48.0118 36.6022 47.7646 36.6343 47.4325 36.5103C47.0098 36.3469 46.6822 35.913 46.6452 35.4651L46.6452 35.4651L46.6449 35.4623C46.6269 35.2687 46.6532 35.073 46.6841 34.842C46.6865 34.8241 46.6889 34.8059 46.6914 34.7875C46.7233 34.5468 46.7569 34.2661 46.7029 33.9813C46.6669 33.7662 46.5955 33.5704 46.4924 33.3797C46.4055 33.2155 46.2963 33.0493 46.1961 32.8968C46.1499 32.8265 46.1057 32.7591 46.0664 32.6962C45.9328 32.4823 45.8314 32.2848 45.7877 32.0716C45.6906 31.5803 45.9474 31.0305 46.376 30.6929L46.376 30.693L46.38 30.6897C46.816 30.3327 47.3723 30.159 47.9753 30.0223L47.9159 29.7601M54.0399 35.825L53.7731 35.7919C53.7767 35.7627 53.7685 35.6948 53.7083 35.5738C53.6509 35.4582 53.5613 35.324 53.4475 35.1734C53.3344 35.0239 53.2044 34.8675 53.0697 34.7061L53.0498 34.6822C52.923 34.5302 52.7925 34.3739 52.6766 34.2232C52.5553 34.0654 52.442 33.9038 52.3617 33.7488C52.2848 33.6005 52.2176 33.4202 52.239 33.2373C52.2639 33.0246 52.3989 32.8706 52.5933 32.7824C52.7712 32.7016 53.0078 32.6696 53.2934 32.6696H53.3035L53.3035 32.6697C53.3514 32.6715 53.3981 32.6737 53.4438 32.6759C53.6113 32.6837 53.7639 32.6909 53.9098 32.675C54.0883 32.6555 54.2029 32.6055 54.2769 32.5186L54.2781 32.5171C54.3576 32.4249 54.385 32.289 54.343 32.1237C54.3005 31.9568 54.1934 31.7947 54.0606 31.6942C53.9153 31.5844 53.7376 31.5112 53.5282 31.4499C53.4238 31.4193 53.3159 31.3928 53.2021 31.3654C53.1923 31.3631 53.1825 31.3607 53.1725 31.3583C53.0702 31.3337 52.963 31.3079 52.8579 31.2787C52.2504 31.1197 51.9853 30.6404 51.8942 30.1509C51.8049 29.6712 51.8696 29.1368 51.9478 28.7422C51.9769 28.5846 52.011 28.4265 52.0442 28.2724C52.0467 28.261 52.0491 28.2496 52.0516 28.2383C52.0876 28.0713 52.1223 27.9085 52.1508 27.7463C52.2078 27.4215 52.2376 27.1125 52.2036 26.8114C52.1709 26.5215 52.0524 26.2285 51.8747 26.0074C51.6978 25.7873 51.4761 25.6536 51.2337 25.637L51.2317 25.6368C50.9425 25.6148 50.6745 25.7595 50.456 26.0307C50.2366 26.303 50.0911 26.6777 50.0574 27.0357C50.0433 27.1998 50.0414 27.3726 50.0402 27.5575C50.0401 27.5686 50.04 27.5798 50.0399 27.591C50.0389 27.7629 50.0378 27.9452 50.0255 28.124C49.9995 28.5035 49.9215 28.9113 49.6499 29.2515C49.4321 29.528 49.1372 29.6888 48.8439 29.7958C48.597 29.8858 48.3304 29.9442 48.094 29.9961C48.0532 30.005 48.0133 30.0137 47.9746 30.0224L47.9159 29.7601M54.0399 35.825C54.0805 35.4976 53.6659 35.0008 53.2573 34.5113C52.5931 33.7154 51.9446 32.9384 53.2934 32.9384L47.337 36.7616C48.1935 37.0823 48.6962 36.5577 49.1889 36.0435C49.6163 35.5975 50.0363 35.1592 50.6732 35.2876C51.0555 35.3647 51.3059 35.6775 51.5598 35.9947C51.7106 36.183 51.8626 36.3729 52.0442 36.516C52.7145 37.038 53.9332 36.6695 54.0399 35.825ZM47.9159 29.7601C47.3065 29.8983 46.6972 30.0825 46.2097 30.4817L49.7896 27.0116C49.7735 27.1983 49.7723 27.3924 49.7711 27.5872C49.7677 28.1298 49.7643 28.6778 49.4393 29.0845C49.115 29.4965 48.5559 29.6193 48.0397 29.7327C47.9981 29.7418 47.9568 29.7509 47.9159 29.7601Z" fill="#546B9E" fill-opacity="0.35" stroke="#96B6DC" stroke-width="0.537709"/>
<path d="M44.2444 60.2536C44.7776 57.2135 45.9049 54.1273 47.1693 51.3328C48.0529 49.3828 49.1345 47.4789 50.7188 46.0355C52.2879 44.5922 54.4358 43.6556 56.5534 43.9167C57.2693 44.0088 58.1224 44.4848 57.9853 45.1911C57.9396 45.3907 57.833 45.5442 57.7111 45.6978C55.426 48.569 50.2465 47.4789 48.0833 50.4422C49.3782 47.5403 52.6839 46.2505 55.6698 45.2371" stroke="#96B6DC" stroke-width="0.537709" stroke-miterlimit="10" stroke-linecap="round" stroke-linejoin="round"/>
<path d="M40.0551 60.6063C39.6133 60.5758 39.1715 60.5605 38.7297 60.5605" stroke="#96B6DC" stroke-width="0.537709" stroke-miterlimit="10" stroke-linecap="round" stroke-linejoin="round"/>
<path d="M50.6121 32.4468C49.7895 32.2318 50.4903 31.0956 50.993 31.8019C51.3738 32.3547 50.8863 33.1377 50.2465 32.7385C49.6676 32.3854 49.5762 31.6177 49.4087 31.0188C49.2258 30.3586 48.9669 29.7291 48.6165 29.1456C48.129 28.3318 46.697 26.2283 45.5393 26.7043C44.153 27.2724 45.067 29.3452 45.7678 30.0976C46.8494 31.2645 48.4337 32.1243 49.82 32.846C48.4489 33.5984 46.9408 34.6885 46.3771 36.2086C46.1029 36.7767 46.1029 37.8515 46.7123 37.698C48.5403 37.2373 49.6067 35.2413 50.0942 33.4448M50.0942 33.4448C49.8504 34.3354 50.1246 35.1338 50.0942 33.4448ZM50.0942 33.4448C50.0637 35.2413 50.6731 37.0838 52.3488 38.0051C53.1105 38.3121 54.3292 38.3121 54.4815 37.3909C54.9385 35.2413 52.6535 34.0129 51.1453 32.8306M51.1453 32.8306C52.0593 33.3834 52.0746 32.6003 51.1453 32.8306ZM51.1453 32.8306C52.0746 32.6003 52.9886 32.2472 53.8417 31.7866C54.4968 31.4334 55.3194 30.9881 55.5784 30.2204C56.203 28.4086 53.5675 29.2377 52.8363 29.6677C52.0898 30.1129 51.3891 30.7425 51.0082 31.5255C51.8613 29.8058 52.6992 27.5181 52.5011 25.5681C52.3488 24.9539 52.0441 24.1862 51.4348 24.4933C50.6731 24.8003 50.3684 25.7216 50.216 26.6429C50.0637 28.1783 49.6067 29.8673 50.1551 31.4488M50.1551 31.4488C49.1954 31.2645 49.82 30.2972 50.1551 31.4488ZM50.1551 31.4488C48.6927 31.2492 47.1693 31.0956 45.6459 31.2492C45.1889 31.4027 44.5795 31.2492 44.2748 31.8633C43.9702 32.324 43.9702 33.0917 44.7319 33.3988C46.5599 34.0129 48.388 33.0917 50.1399 32.8306M50.1399 32.8306C49.0735 33.107 49.6981 37.8362 50.1399 32.8306ZM50.1399 32.8306C49.6067 37.5444 49.4544 42.3043 47.931 46.9106C46.2552 51.3633 44.5795 55.509 43.6655 60.1153C43.9702 60.7294 44.7319 60.2688 45.3412 60.4224C45.4936 60.4224 45.7982 60.5759 45.6459 60.7294C43.9702 61.3436 42.2944 60.7294 40.6187 60.668" stroke="#96B6DC" stroke-width="0.537709" stroke-miterlimit="10" stroke-linecap="round" stroke-linejoin="round"/>
</g>
<path d="M60 61.9552C73.1961 59.5227 86.6469 58.0599 99.9652 56.4991C112.312 55.0521 124.618 53.9669 137.058 54.1326C144.788 54.2356 152.643 54.5942 160.156 56.5693C162.939 57.3009 165.728 58.328 168.441 59.2903" stroke="#96B6DC" stroke-width="0.537709" stroke-linecap="round"/>
<path d="M68.428 17.9868C68.428 18.6528 68.59 19.2468 68.914 19.7688C69.256 20.2728 69.67 20.7138 70.156 21.0918C70.66 21.4698 71.335 21.9198 72.181 22.4418C73.099 23.0178 73.819 23.5128 74.341 23.9268C74.881 24.3408 75.331 24.8538 75.691 25.4658C76.069 26.0598 76.258 26.7618 76.258 27.5718C76.258 28.4898 76.015 29.3088 75.529 30.0288C75.061 30.7488 74.386 31.3158 73.504 31.7298C72.64 32.1258 71.65 32.3238 70.534 32.3238C69.778 32.3238 68.995 32.2248 68.185 32.0268C67.393 31.8288 66.79 31.5858 66.376 31.2978C66.214 31.1898 66.124 31.0188 66.106 30.7848L65.944 26.6808V26.6538C65.944 26.5818 65.989 26.5458 66.079 26.5458C66.169 26.5278 66.223 26.5548 66.241 26.6268C66.835 28.1208 67.51 29.3448 68.266 30.2988C69.04 31.2528 70.021 31.7298 71.209 31.7298C71.983 31.7298 72.631 31.5228 73.153 31.1088C73.675 30.6768 73.936 29.9658 73.936 28.9758C73.936 28.1838 73.756 27.4908 73.396 26.8968C73.054 26.3028 72.622 25.8078 72.1 25.4118C71.596 25.0158 70.903 24.5298 70.021 23.9538C69.157 23.3958 68.482 22.9278 67.996 22.5498C67.51 22.1538 67.096 21.6768 66.754 21.1188C66.412 20.5428 66.241 19.8768 66.241 19.1208C66.241 18.1848 66.502 17.3928 67.024 16.7448C67.546 16.0968 68.221 15.6198 69.049 15.3138C69.895 14.9898 70.777 14.8278 71.695 14.8278C72.307 14.8278 72.919 14.8908 73.531 15.0168C74.143 15.1248 74.656 15.2688 75.07 15.4488C75.232 15.5028 75.34 15.5748 75.394 15.6648C75.448 15.7368 75.475 15.8358 75.475 15.9618L75.556 19.6338C75.556 19.6878 75.502 19.7328 75.394 19.7688C75.304 19.7868 75.25 19.7598 75.232 19.6878C74.872 18.5898 74.386 17.5998 73.774 16.7178C73.18 15.8178 72.28 15.3678 71.074 15.3678C70.264 15.3678 69.616 15.6018 69.13 16.0698C68.662 16.5378 68.428 17.1768 68.428 17.9868Z" fill="#96B6DC"/>
<path d="M89.1865 21.5778C89.2225 21.5778 89.2405 21.6318 89.2405 21.7398C89.2405 21.8478 89.2225 21.9018 89.1865 21.9018C88.6825 21.9018 88.2415 22.0818 87.8635 22.4418C87.5035 22.8018 87.1525 23.3778 86.8105 24.1698L83.4625 31.9998C83.4265 32.0898 83.3365 32.1348 83.1925 32.1348C83.0305 32.1348 82.9225 32.0898 82.8685 31.9998L78.8725 23.8188C78.4945 23.0268 78.1705 22.5138 77.9005 22.2798C77.6305 22.0278 77.2975 21.9018 76.9015 21.9018C76.8475 21.9018 76.8205 21.8478 76.8205 21.7398C76.8205 21.6318 76.8475 21.5778 76.9015 21.5778C77.2255 21.5778 77.4865 21.5868 77.6845 21.6048L79.2505 21.6318L81.2485 21.6048C81.5365 21.5868 81.9325 21.5778 82.4365 21.5778C82.4905 21.5778 82.5175 21.6318 82.5175 21.7398C82.5175 21.8478 82.4905 21.9018 82.4365 21.9018C81.3745 21.9018 80.8435 22.1088 80.8435 22.5228C80.8435 22.6308 80.8885 22.7748 80.9785 22.9548L84.0835 29.0568L86.1355 24.1158C86.2615 23.8098 86.3245 23.5128 86.3245 23.2248C86.3245 22.7928 86.1625 22.4688 85.8385 22.2528C85.5325 22.0188 85.0735 21.9018 84.4615 21.9018C84.4255 21.9018 84.4075 21.8478 84.4075 21.7398C84.4075 21.6318 84.4255 21.5778 84.4615 21.5778C84.9475 21.5778 85.3165 21.5868 85.5685 21.6048L87.1885 21.6318L88.2415 21.6048C88.4395 21.5868 88.7545 21.5778 89.1865 21.5778Z" fill="#96B6DC"/>
<path d="M89.6314 31.9998C89.5774 31.9998 89.5504 31.9458 89.5504 31.8378C89.5504 31.7298 89.5774 31.6758 89.6314 31.6758C90.2434 31.6758 90.6484 31.5498 90.8464 31.2978C91.0444 31.0458 91.1434 30.5508 91.1434 29.8128V24.8988C91.1434 24.2868 91.0804 23.8458 90.9544 23.5758C90.8284 23.2878 90.6124 23.1438 90.3064 23.1438C90.0364 23.1438 89.6854 23.2518 89.2534 23.4678H89.2264C89.1544 23.4678 89.1004 23.4228 89.0644 23.3328C89.0284 23.2428 89.0374 23.1798 89.0914 23.1438L92.9794 21.3348L93.0604 21.3078C93.1324 21.3078 93.2044 21.3528 93.2764 21.4428C93.3664 21.5148 93.4114 21.5778 93.4114 21.6318V22.1988C93.3754 22.9548 93.3574 23.8458 93.3574 24.8718V29.8128C93.3574 30.5508 93.4564 31.0458 93.6544 31.2978C93.8704 31.5498 94.2844 31.6758 94.8964 31.6758C94.9504 31.6758 94.9774 31.7298 94.9774 31.8378C94.9774 31.9458 94.9504 31.9998 94.8964 31.9998C94.4464 31.9998 94.0864 31.9908 93.8164 31.9728L92.2504 31.9458L90.6844 31.9728C90.4324 31.9908 90.0814 31.9998 89.6314 31.9998ZM92.1154 18.4728C91.6474 18.4728 91.2784 18.3468 91.0084 18.0948C90.7564 17.8428 90.6304 17.4828 90.6304 17.0148C90.6304 16.5648 90.7564 16.2228 91.0084 15.9888C91.2784 15.7368 91.6474 15.6108 92.1154 15.6108C92.5654 15.6108 92.9164 15.7368 93.1684 15.9888C93.4204 16.2228 93.5464 16.5648 93.5464 17.0148C93.5464 17.4828 93.4204 17.8428 93.1684 18.0948C92.9344 18.3468 92.5834 18.4728 92.1154 18.4728Z" fill="#96B6DC"/>
<path d="M103.715 30.2718C103.769 30.2718 103.814 30.3078 103.85 30.3798C103.904 30.4518 103.904 30.5058 103.85 30.5418C103.184 31.1718 102.554 31.6308 101.96 31.9188C101.366 32.1888 100.736 32.3238 100.07 32.3238C99.2963 32.3238 98.6393 32.1438 98.0993 31.7838C97.5773 31.4058 97.3163 30.7848 97.3163 29.9208V23.8188C97.3163 23.2248 97.2173 22.8288 97.0193 22.6308C96.8393 22.4328 96.4793 22.3338 95.9393 22.3338C95.9213 22.3338 95.8943 22.3158 95.8583 22.2798C95.8403 22.2258 95.8313 22.1718 95.8313 22.1178C95.8313 22.0638 95.8403 22.0188 95.8583 21.9828C95.8943 21.9288 95.9213 21.9018 95.9393 21.9018C97.6313 21.8298 98.6933 21.1008 99.1253 19.7148C99.1613 19.6428 99.2333 19.6068 99.3413 19.6068C99.4673 19.6068 99.5303 19.6428 99.5303 19.7148V21.8478C100.376 21.8298 101.573 21.7398 103.121 21.5778C103.157 21.5778 103.193 21.6498 103.229 21.7938C103.283 21.9198 103.31 22.0638 103.31 22.2258C103.31 22.3878 103.274 22.5498 103.202 22.7118C103.148 22.8738 103.085 22.9458 103.013 22.9278C102.005 22.6938 100.844 22.5498 99.5303 22.4958V29.0298C99.5303 29.7318 99.7013 30.2538 100.043 30.5958C100.403 30.9198 100.898 31.0818 101.528 31.0818C102.284 31.0818 102.995 30.8208 103.661 30.2988L103.715 30.2718Z" fill="#96B6DC"/>
<path d="M104.631 31.9998C104.577 31.9998 104.55 31.9458 104.55 31.8378C104.55 31.7298 104.577 31.6758 104.631 31.6758C105.225 31.6758 105.63 31.5498 105.846 31.2978C106.062 31.0278 106.17 30.5328 106.17 29.8128V16.0158C106.17 15.3858 106.107 14.9358 105.981 14.6658C105.873 14.3778 105.666 14.2338 105.36 14.2338C105.09 14.2338 104.73 14.3418 104.28 14.5578H104.253C104.181 14.5578 104.127 14.5128 104.091 14.4228C104.055 14.3328 104.055 14.2698 104.091 14.2338L107.898 12.4518L108.006 12.4248C108.078 12.4248 108.159 12.4608 108.249 12.5328C108.357 12.6048 108.411 12.6678 108.411 12.7218V29.8128C108.411 30.5508 108.51 31.0458 108.708 31.2978C108.906 31.5498 109.311 31.6758 109.923 31.6758C109.977 31.6758 110.004 31.7298 110.004 31.8378C110.004 31.9458 109.977 31.9998 109.923 31.9998C109.491 31.9998 109.14 31.9908 108.87 31.9728L107.277 31.9458L105.711 31.9728C105.441 31.9908 105.081 31.9998 104.631 31.9998Z" fill="#96B6DC"/>
<path d="M121.523 30.5418C121.595 30.5418 121.64 30.5868 121.658 30.6768C121.676 30.7488 121.649 30.8028 121.577 30.8388L118.796 32.1618C118.724 32.1978 118.643 32.2158 118.553 32.2158C118.301 32.2158 118.058 32.0718 117.824 31.7838C117.59 31.4958 117.428 31.1088 117.338 30.6228L115.934 31.3788C114.89 31.9188 113.999 32.1888 113.261 32.1888C112.685 32.1888 112.235 32.0448 111.911 31.7568C111.605 31.4508 111.452 31.0368 111.452 30.5148C111.452 29.9568 111.65 29.5428 112.046 29.2728C112.442 28.9848 113.198 28.6518 114.314 28.2738L117.257 27.2748V25.1148C117.257 24.0168 117.131 23.2158 116.879 22.7118C116.627 22.1898 116.249 21.9288 115.745 21.9288C114.773 21.9288 114.215 22.6398 114.071 24.0618C113.981 24.9618 113.522 25.4118 112.694 25.4118C111.92 25.4118 111.533 25.0788 111.533 24.4128C111.533 23.9448 111.821 23.4768 112.397 23.0088C112.991 22.5228 113.702 22.1268 114.53 21.8208C115.358 21.4968 116.096 21.3348 116.744 21.3348C117.554 21.3348 118.202 21.5868 118.688 22.0908C119.192 22.5768 119.444 23.3148 119.444 24.3048V29.0838C119.444 29.6418 119.534 30.0648 119.714 30.3528C119.894 30.6408 120.155 30.7848 120.497 30.7848C120.767 30.7848 121.091 30.7038 121.469 30.5418H121.523ZM117.284 30.1908C117.266 30.1188 117.257 29.9838 117.257 29.7858V27.7068L115.34 28.4088C114.872 28.5888 114.539 28.7868 114.341 29.0028C114.143 29.2008 114.044 29.4528 114.044 29.7588C114.044 30.1368 114.152 30.4338 114.368 30.6498C114.584 30.8658 114.863 30.9738 115.205 30.9738C115.583 30.9738 116.006 30.8568 116.474 30.6228L117.284 30.1908Z" fill="#96B6DC"/>
<path d="M134.643 31.6758C134.697 31.6758 134.724 31.7298 134.724 31.8378C134.724 31.9458 134.697 31.9998 134.643 31.9998C134.193 31.9998 133.842 31.9908 133.59 31.9728L132.024 31.9458L130.485 31.9728C130.215 31.9908 129.855 31.9998 129.405 31.9998C129.351 31.9998 129.324 31.9458 129.324 31.8378C129.324 31.7298 129.351 31.6758 129.405 31.6758C130.017 31.6758 130.422 31.5498 130.62 31.2978C130.818 31.0458 130.917 30.5508 130.917 29.8128V25.7628C130.917 24.7548 130.728 24.0168 130.35 23.5488C129.99 23.0628 129.414 22.8198 128.622 22.8198C128.154 22.8198 127.677 22.9278 127.191 23.1438C126.705 23.3598 126.264 23.6478 125.868 24.0078V29.8128C125.868 30.5508 125.967 31.0458 126.165 31.2978C126.363 31.5498 126.768 31.6758 127.38 31.6758C127.434 31.6758 127.461 31.7298 127.461 31.8378C127.461 31.9458 127.434 31.9998 127.38 31.9998C126.93 31.9998 126.579 31.9908 126.327 31.9728L124.761 31.9458L123.195 31.9728C122.943 31.9908 122.592 31.9998 122.142 31.9998C122.088 31.9998 122.061 31.9458 122.061 31.8378C122.061 31.7298 122.088 31.6758 122.142 31.6758C122.754 31.6758 123.159 31.5498 123.357 31.2978C123.555 31.0458 123.654 30.5508 123.654 29.8128V24.6558C123.654 24.0798 123.582 23.6568 123.438 23.3868C123.312 23.1168 123.096 22.9818 122.79 22.9818C122.52 22.9818 122.07 23.1168 121.44 23.3868H121.413C121.341 23.3868 121.287 23.3418 121.251 23.2518C121.215 23.1618 121.224 23.1078 121.278 23.0898L124.815 21.3618C124.923 21.3258 124.986 21.3078 125.004 21.3078C125.184 21.3078 125.364 21.5148 125.544 21.9288C125.742 22.3248 125.85 22.8468 125.868 23.4948C127.128 22.0008 128.496 21.2538 129.972 21.2538C130.962 21.2538 131.736 21.5598 132.294 22.1718C132.852 22.7658 133.131 23.5758 133.131 24.6018V29.8128C133.131 30.5508 133.23 31.0458 133.428 31.2978C133.626 31.5498 134.031 31.6758 134.643 31.6758Z" fill="#96B6DC"/>
<path d="M145.914 30.5418C145.986 30.5418 146.031 30.5868 146.049 30.6768C146.067 30.7488 146.04 30.8028 145.968 30.8388L143.187 32.1618C143.115 32.1978 143.034 32.2158 142.944 32.2158C142.692 32.2158 142.449 32.0718 142.215 31.7838C141.981 31.4958 141.819 31.1088 141.729 30.6228L140.325 31.3788C139.281 31.9188 138.39 32.1888 137.652 32.1888C137.076 32.1888 136.626 32.0448 136.302 31.7568C135.996 31.4508 135.843 31.0368 135.843 30.5148C135.843 29.9568 136.041 29.5428 136.437 29.2728C136.833 28.9848 137.589 28.6518 138.705 28.2738L141.648 27.2748V25.1148C141.648 24.0168 141.522 23.2158 141.27 22.7118C141.018 22.1898 140.64 21.9288 140.136 21.9288C139.164 21.9288 138.606 22.6398 138.462 24.0618C138.372 24.9618 137.913 25.4118 137.085 25.4118C136.311 25.4118 135.924 25.0788 135.924 24.4128C135.924 23.9448 136.212 23.4768 136.788 23.0088C137.382 22.5228 138.093 22.1268 138.921 21.8208C139.749 21.4968 140.487 21.3348 141.135 21.3348C141.945 21.3348 142.593 21.5868 143.079 22.0908C143.583 22.5768 143.835 23.3148 143.835 24.3048V29.0838C143.835 29.6418 143.925 30.0648 144.105 30.3528C144.285 30.6408 144.546 30.7848 144.888 30.7848C145.158 30.7848 145.482 30.7038 145.86 30.5418H145.914ZM141.675 30.1908C141.657 30.1188 141.648 29.9838 141.648 29.7858V27.7068L139.731 28.4088C139.263 28.5888 138.93 28.7868 138.732 29.0028C138.534 29.2008 138.435 29.4528 138.435 29.7588C138.435 30.1368 138.543 30.4338 138.759 30.6498C138.975 30.8658 139.254 30.9738 139.596 30.9738C139.974 30.9738 140.397 30.8568 140.865 30.6228L141.675 30.1908Z" fill="#96B6DC"/>
<path d="M161.096 32.3238C159.422 32.3238 157.928 31.9368 156.614 31.1628C155.318 30.3708 154.31 29.3088 153.59 27.9768C152.888 26.6268 152.537 25.1598 152.537 23.5758C152.537 21.7218 153.005 20.1378 153.941 18.8238C154.877 17.4918 156.074 16.4928 157.532 15.8268C159.008 15.1608 160.511 14.8278 162.041 14.8278C163.751 14.8278 165.254 15.2328 166.55 16.0428C167.846 16.8348 168.836 17.8878 169.52 19.2018C170.222 20.5158 170.573 21.9108 170.573 23.3868C170.573 25.0248 170.141 26.5278 169.277 27.8958C168.413 29.2638 167.252 30.3438 165.794 31.1358C164.354 31.9278 162.788 32.3238 161.096 32.3238ZM162.014 31.6758C163.094 31.6758 164.057 31.3878 164.903 30.8118C165.767 30.2178 166.442 29.3538 166.928 28.2198C167.432 27.0858 167.684 25.7358 167.684 24.1698C167.684 22.5138 167.405 21.0288 166.847 19.7148C166.307 18.4008 165.524 17.3748 164.498 16.6368C163.49 15.8988 162.302 15.5298 160.934 15.5298C159.188 15.5298 157.829 16.1598 156.857 17.4198C155.903 18.6618 155.426 20.3898 155.426 22.6038C155.426 24.3138 155.705 25.8618 156.263 27.2478C156.839 28.6338 157.622 29.7228 158.612 30.5148C159.62 31.2888 160.754 31.6758 162.014 31.6758Z" fill="#96B6DC"/>
<path d="M172.345 31.9998C172.291 31.9998 172.264 31.9458 172.264 31.8378C172.264 31.7298 172.291 31.6758 172.345 31.6758C172.939 31.6758 173.344 31.5498 173.56 31.2978C173.776 31.0278 173.884 30.5328 173.884 29.8128V16.0158C173.884 15.3858 173.821 14.9358 173.695 14.6658C173.587 14.3778 173.38 14.2338 173.074 14.2338C172.804 14.2338 172.444 14.3418 171.994 14.5578H171.967C171.895 14.5578 171.841 14.5128 171.805 14.4228C171.769 14.3328 171.769 14.2698 171.805 14.2338L175.612 12.4518L175.72 12.4248C175.792 12.4248 175.873 12.4608 175.963 12.5328C176.071 12.6048 176.125 12.6678 176.125 12.7218V29.8128C176.125 30.5508 176.224 31.0458 176.422 31.2978C176.62 31.5498 177.025 31.6758 177.637 31.6758C177.691 31.6758 177.718 31.7298 177.718 31.8378C177.718 31.9458 177.691 31.9998 177.637 31.9998C177.205 31.9998 176.854 31.9908 176.584 31.9728L174.991 31.9458L173.425 31.9728C173.155 31.9908 172.795 31.9998 172.345 31.9998Z" fill="#96B6DC"/>
<path d="M179.14 31.9998C179.086 31.9998 179.059 31.9458 179.059 31.8378C179.059 31.7298 179.086 31.6758 179.14 31.6758C179.752 31.6758 180.157 31.5498 180.355 31.2978C180.553 31.0458 180.652 30.5508 180.652 29.8128V24.8988C180.652 24.2868 180.589 23.8458 180.463 23.5758C180.337 23.2878 180.121 23.1438 179.815 23.1438C179.545 23.1438 179.194 23.2518 178.762 23.4678H178.735C178.663 23.4678 178.609 23.4228 178.573 23.3328C178.537 23.2428 178.546 23.1798 178.6 23.1438L182.488 21.3348L182.569 21.3078C182.641 21.3078 182.713 21.3528 182.785 21.4428C182.875 21.5148 182.92 21.5778 182.92 21.6318V22.1988C182.884 22.9548 182.866 23.8458 182.866 24.8718V29.8128C182.866 30.5508 182.965 31.0458 183.163 31.2978C183.379 31.5498 183.793 31.6758 184.405 31.6758C184.459 31.6758 184.486 31.7298 184.486 31.8378C184.486 31.9458 184.459 31.9998 184.405 31.9998C183.955 31.9998 183.595 31.9908 183.325 31.9728L181.759 31.9458L180.193 31.9728C179.941 31.9908 179.59 31.9998 179.14 31.9998ZM181.624 18.4728C181.156 18.4728 180.787 18.3468 180.517 18.0948C180.265 17.8428 180.139 17.4828 180.139 17.0148C180.139 16.5648 180.265 16.2228 180.517 15.9888C180.787 15.7368 181.156 15.6108 181.624 15.6108C182.074 15.6108 182.425 15.7368 182.677 15.9888C182.929 16.2228 183.055 16.5648 183.055 17.0148C183.055 17.4828 182.929 17.8428 182.677 18.0948C182.443 18.3468 182.092 18.4728 181.624 18.4728Z" fill="#96B6DC"/>
<path d="M185.771 31.9998C185.717 31.9998 185.69 31.9458 185.69 31.8378C185.69 31.7298 185.717 31.6758 185.771 31.6758C186.383 31.6758 186.788 31.5498 186.986 31.2978C187.184 31.0458 187.283 30.5508 187.283 29.8128V24.8988C187.283 24.2868 187.22 23.8458 187.094 23.5758C186.968 23.2878 186.752 23.1438 186.446 23.1438C186.176 23.1438 185.825 23.2518 185.393 23.4678H185.366C185.294 23.4678 185.24 23.4228 185.204 23.3328C185.168 23.2428 185.177 23.1798 185.231 23.1438L189.119 21.3348L189.2 21.3078C189.272 21.3078 189.344 21.3528 189.416 21.4428C189.506 21.5148 189.551 21.5778 189.551 21.6318V22.1988C189.515 22.9548 189.497 23.8458 189.497 24.8718V29.8128C189.497 30.5508 189.596 31.0458 189.794 31.2978C190.01 31.5498 190.424 31.6758 191.036 31.6758C191.09 31.6758 191.117 31.7298 191.117 31.8378C191.117 31.9458 191.09 31.9998 191.036 31.9998C190.586 31.9998 190.226 31.9908 189.956 31.9728L188.39 31.9458L186.824 31.9728C186.572 31.9908 186.221 31.9998 185.771 31.9998ZM188.255 18.4728C187.787 18.4728 187.418 18.3468 187.148 18.0948C186.896 17.8428 186.77 17.4828 186.77 17.0148C186.77 16.5648 186.896 16.2228 187.148 15.9888C187.418 15.7368 187.787 15.6108 188.255 15.6108C188.705 15.6108 189.056 15.7368 189.308 15.9888C189.56 16.2228 189.686 16.5648 189.686 17.0148C189.686 17.4828 189.56 17.8428 189.308 18.0948C189.074 18.3468 188.723 18.4728 188.255 18.4728Z" fill="#96B6DC"/>
<path d="M204.823 31.6758C204.877 31.6758 204.904 31.7298 204.904 31.8378C204.904 31.9458 204.877 31.9998 204.823 31.9998C204.373 31.9998 204.022 31.9908 203.77 31.9728L202.204 31.9458L200.665 31.9728C200.395 31.9908 200.035 31.9998 199.585 31.9998C199.531 31.9998 199.504 31.9458 199.504 31.8378C199.504 31.7298 199.531 31.6758 199.585 31.6758C200.197 31.6758 200.602 31.5498 200.8 31.2978C200.998 31.0458 201.097 30.5508 201.097 29.8128V25.7628C201.097 24.7548 200.908 24.0168 200.53 23.5488C200.17 23.0628 199.594 22.8198 198.802 22.8198C198.334 22.8198 197.857 22.9278 197.371 23.1438C196.885 23.3598 196.444 23.6478 196.048 24.0078V29.8128C196.048 30.5508 196.147 31.0458 196.345 31.2978C196.543 31.5498 196.948 31.6758 197.56 31.6758C197.614 31.6758 197.641 31.7298 197.641 31.8378C197.641 31.9458 197.614 31.9998 197.56 31.9998C197.11 31.9998 196.759 31.9908 196.507 31.9728L194.941 31.9458L193.375 31.9728C193.123 31.9908 192.772 31.9998 192.322 31.9998C192.268 31.9998 192.241 31.9458 192.241 31.8378C192.241 31.7298 192.268 31.6758 192.322 31.6758C192.934 31.6758 193.339 31.5498 193.537 31.2978C193.735 31.0458 193.834 30.5508 193.834 29.8128V24.6558C193.834 24.0798 193.762 23.6568 193.618 23.3868C193.492 23.1168 193.276 22.9818 192.97 22.9818C192.7 22.9818 192.25 23.1168 191.62 23.3868H191.593C191.521 23.3868 191.467 23.3418 191.431 23.2518C191.395 23.1618 191.404 23.1078 191.458 23.0898L194.995 21.3618C195.103 21.3258 195.166 21.3078 195.184 21.3078C195.364 21.3078 195.544 21.5148 195.724 21.9288C195.922 22.3248 196.03 22.8468 196.048 23.4948C197.308 22.0008 198.676 21.2538 200.152 21.2538C201.142 21.2538 201.916 21.5598 202.474 22.1718C203.032 22.7658 203.311 23.5758 203.311 24.6018V29.8128C203.311 30.5508 203.41 31.0458 203.608 31.2978C203.806 31.5498 204.211 31.6758 204.823 31.6758Z" fill="#96B6DC"/>
<path d="M216.634 21.5778C216.67 21.5778 216.688 21.6318 216.688 21.7398C216.688 21.8478 216.67 21.9018 216.634 21.9018C216.094 21.9018 215.626 22.1178 215.23 22.5498C214.852 22.9818 214.501 23.6388 214.177 24.5208L211.072 32.7558C210.424 34.4838 209.803 35.8428 209.209 36.8328C208.615 37.8228 208.012 38.5248 207.4 38.9388C206.788 39.3708 206.113 39.5868 205.375 39.5868C204.871 39.5868 204.484 39.4788 204.214 39.2628C203.926 39.0648 203.782 38.7588 203.782 38.3448C203.782 37.9848 203.899 37.7058 204.133 37.5078C204.349 37.3278 204.619 37.2378 204.943 37.2378C205.159 37.2378 205.339 37.2648 205.483 37.3188C205.645 37.3908 205.807 37.4808 205.969 37.5888C206.149 37.6968 206.302 37.7778 206.428 37.8318C206.572 37.8858 206.743 37.9128 206.941 37.9128C207.355 37.9128 207.733 37.7418 208.075 37.3998C208.435 37.0758 208.804 36.5268 209.182 35.7528C209.578 34.9788 210.046 33.8808 210.586 32.4588L206.32 23.8188C205.924 23.0448 205.609 22.5318 205.375 22.2798C205.159 22.0278 204.889 21.9018 204.565 21.9018C204.511 21.9018 204.484 21.8478 204.484 21.7398C204.484 21.6318 204.511 21.5778 204.565 21.5778C205.033 21.5778 205.393 21.5868 205.645 21.6048L206.698 21.6318L208.534 21.6048C208.804 21.5868 209.173 21.5778 209.641 21.5778C209.695 21.5778 209.722 21.6318 209.722 21.7398C209.722 21.8478 209.695 21.9018 209.641 21.9018C209.155 21.9018 208.795 21.9468 208.561 22.0368C208.345 22.1088 208.237 22.2528 208.237 22.4688C208.237 22.6308 208.282 22.7928 208.372 22.9548L211.666 29.7588L213.475 24.5208C213.637 24.0528 213.718 23.6568 213.718 23.3328C213.718 22.3788 213.115 21.9018 211.909 21.9018C211.873 21.9018 211.855 21.8478 211.855 21.7398C211.855 21.6318 211.873 21.5778 211.909 21.5778C212.395 21.5778 212.764 21.5868 213.016 21.6048L214.636 21.6318L215.689 21.6048C215.887 21.5868 216.202 21.5778 216.634 21.5778Z" fill="#96B6DC"/>
<path d="M229.154 31.6758C229.208 31.6758 229.235 31.7298 229.235 31.8378C229.235 31.9458 229.208 31.9998 229.154 31.9998C228.704 31.9998 228.344 31.9908 228.074 31.9728L226.535 31.9458L224.51 31.9728C224.204 31.9908 223.79 31.9998 223.268 31.9998C223.232 31.9998 223.214 31.9458 223.214 31.8378C223.214 31.7298 223.232 31.6758 223.268 31.6758C224.006 31.6758 224.375 31.4868 224.375 31.1088C224.375 30.9468 224.303 30.7668 224.159 30.5688L221 26.4108L220.19 27.1128V29.8128C220.19 30.5508 220.289 31.0458 220.487 31.2978C220.703 31.5498 221.117 31.6758 221.729 31.6758C221.801 31.6758 221.837 31.7298 221.837 31.8378C221.837 31.9458 221.801 31.9998 221.729 31.9998C221.279 31.9998 220.919 31.9908 220.649 31.9728L219.11 31.9458L217.571 31.9728C217.301 31.9908 216.941 31.9998 216.491 31.9998C216.437 31.9998 216.41 31.9458 216.41 31.8378C216.41 31.7298 216.437 31.6758 216.491 31.6758C217.085 31.6758 217.49 31.5498 217.706 31.2978C217.922 31.0278 218.03 30.5328 218.03 29.8128V16.0158C218.03 15.3858 217.967 14.9358 217.841 14.6658C217.715 14.3778 217.508 14.2338 217.22 14.2338C216.95 14.2338 216.581 14.3418 216.113 14.5578H216.086C216.032 14.5578 215.978 14.5128 215.924 14.4228C215.888 14.3148 215.897 14.2518 215.951 14.2338L219.704 12.4518L219.839 12.4248C219.911 12.4248 219.983 12.4608 220.055 12.5328C220.145 12.6048 220.19 12.6678 220.19 12.7218V26.5458L223.079 23.9538C223.583 23.5218 223.835 23.0988 223.835 22.6848C223.835 22.4508 223.727 22.2618 223.511 22.1178C223.313 21.9738 223.025 21.9018 222.647 21.9018C222.593 21.9018 222.566 21.8478 222.566 21.7398C222.566 21.6318 222.593 21.5778 222.647 21.5778C223.151 21.5778 223.547 21.5868 223.835 21.6048L225.887 21.6318L227.804 21.6048C228.056 21.5868 228.398 21.5778 228.83 21.5778C228.884 21.5778 228.911 21.6318 228.911 21.7398C228.911 21.8478 228.884 21.9018 228.83 21.9018C228.092 21.9018 227.255 22.0908 226.319 22.4688C225.383 22.8288 224.519 23.3598 223.727 24.0618L222.566 25.0608L226.157 29.8128C226.661 30.4788 227.156 30.9558 227.642 31.2438C228.128 31.5318 228.632 31.6758 229.154 31.6758Z" fill="#96B6DC"/>
<path d="M74.605 39.4999V49.9999H73.375L67.075 42.1699V49.9999H65.575V39.4999H66.805L73.105 47.3299V39.4999H74.605Z" fill="#96B6DC"/>
<path d="M82.0979 50.1199C80.6979 50.1199 79.6079 49.7199 78.8279 48.9199C78.0479 48.1199 77.6579 46.9699 77.6579 45.4699V39.4999H79.1579V45.4099C79.1579 47.6599 80.1429 48.7849 82.1129 48.7849C83.0729 48.7849 83.8079 48.5099 84.3179 47.9599C84.8279 47.3999 85.0829 46.5499 85.0829 45.4099V39.4999H86.5379V45.4699C86.5379 46.9799 86.1479 48.1349 85.3679 48.9349C84.5879 49.7249 83.4979 50.1199 82.0979 50.1199Z" fill="#96B6DC"/>
<path d="M91.5077 40.8049H87.9077V39.4999H96.5927V40.8049H92.9927V49.9999H91.5077V40.8049Z" fill="#96B6DC"/>
<path d="M105.246 49.9999L102.981 46.7749C102.701 46.7949 102.481 46.8049 102.321 46.8049H99.7264V49.9999H98.2264V39.4999H102.321C103.681 39.4999 104.751 39.8249 105.531 40.4749C106.311 41.1249 106.701 42.0199 106.701 43.1599C106.701 43.9699 106.501 44.6599 106.101 45.2299C105.701 45.7999 105.131 46.2149 104.391 46.4749L106.881 49.9999H105.246ZM102.276 45.5299C103.226 45.5299 103.951 45.3249 104.451 44.9149C104.951 44.5049 105.201 43.9199 105.201 43.1599C105.201 42.3999 104.951 41.8199 104.451 41.4199C103.951 41.0099 103.226 40.8049 102.276 40.8049H99.7264V45.5299H102.276Z" fill="#96B6DC"/>
<path d="M109.125 39.4999H110.625V49.9999H109.125V39.4999Z" fill="#96B6DC"/>
<path d="M115.853 40.8049H112.253V39.4999H120.938V40.8049H117.338V49.9999H115.853V40.8049Z" fill="#96B6DC"/>
<path d="M122.572 39.4999H124.072V49.9999H122.572V39.4999Z" fill="#96B6DC"/>
<path d="M131.956 50.1199C130.896 50.1199 129.941 49.8899 129.091 49.4299C128.241 48.9599 127.571 48.3149 127.081 47.4949C126.601 46.6749 126.361 45.7599 126.361 44.7499C126.361 43.7399 126.601 42.8249 127.081 42.0049C127.571 41.1849 128.241 40.5449 129.091 40.0849C129.941 39.6149 130.896 39.3799 131.956 39.3799C133.006 39.3799 133.956 39.6149 134.806 40.0849C135.656 40.5449 136.321 41.1849 136.801 42.0049C137.281 42.8149 137.521 43.7299 137.521 44.7499C137.521 45.7699 137.281 46.6899 136.801 47.5099C136.321 48.3199 135.656 48.9599 134.806 49.4299C133.956 49.8899 133.006 50.1199 131.956 50.1199ZM131.956 48.7849C132.726 48.7849 133.416 48.6099 134.026 48.2599C134.646 47.9099 135.131 47.4299 135.481 46.8199C135.841 46.1999 136.021 45.5099 136.021 44.7499C136.021 43.9899 135.841 43.3049 135.481 42.6949C135.131 42.0749 134.646 41.5899 134.026 41.2399C133.416 40.8899 132.726 40.7149 131.956 40.7149C131.186 40.7149 130.486 40.8899 129.856 41.2399C129.236 41.5899 128.746 42.0749 128.386 42.6949C128.036 43.3049 127.861 43.9899 127.861 44.7499C127.861 45.5099 128.036 46.1999 128.386 46.8199C128.746 47.4299 129.236 47.9099 129.856 48.2599C130.486 48.6099 131.186 48.7849 131.956 48.7849Z" fill="#96B6DC"/>
<path d="M148.843 39.4999V49.9999H147.613L141.313 42.1699V49.9999H139.813V39.4999H141.043L147.343 47.3299V39.4999H148.843Z" fill="#96B6DC"/>
<path d="M151.986 39.4999H153.486V49.9999H151.986V39.4999Z" fill="#96B6DC"/>
<path d="M159.69 50.1199C158.9 50.1199 158.135 49.9999 157.395 49.7599C156.665 49.5099 156.09 49.1899 155.67 48.7999L156.225 47.6299C156.625 47.9899 157.135 48.2849 157.755 48.5149C158.385 48.7349 159.03 48.8449 159.69 48.8449C160.56 48.8449 161.21 48.6999 161.64 48.4099C162.07 48.1099 162.285 47.7149 162.285 47.2249C162.285 46.8649 162.165 46.5749 161.925 46.3549C161.695 46.1249 161.405 45.9499 161.055 45.8299C160.715 45.7099 160.23 45.5749 159.6 45.4249C158.81 45.2349 158.17 45.0449 157.68 44.8549C157.2 44.6649 156.785 44.3749 156.435 43.9849C156.095 43.5849 155.925 43.0499 155.925 42.3799C155.925 41.8199 156.07 41.3149 156.36 40.8649C156.66 40.4149 157.11 40.0549 157.71 39.7849C158.31 39.5149 159.055 39.3799 159.945 39.3799C160.565 39.3799 161.175 39.4599 161.775 39.6199C162.375 39.7799 162.89 40.0099 163.32 40.3099L162.825 41.5099C162.385 41.2299 161.915 41.0199 161.415 40.8799C160.915 40.7299 160.425 40.6549 159.945 40.6549C159.095 40.6549 158.455 40.8099 158.025 41.1199C157.605 41.4299 157.395 41.8299 157.395 42.3199C157.395 42.6799 157.515 42.9749 157.755 43.2049C157.995 43.4249 158.29 43.5999 158.64 43.7299C159 43.8499 159.485 43.9799 160.095 44.1199C160.885 44.3099 161.52 44.4999 162 44.6899C162.48 44.8799 162.89 45.1699 163.23 45.5599C163.58 45.9499 163.755 46.4749 163.755 47.1349C163.755 47.6849 163.605 48.1899 163.305 48.6499C163.005 49.0999 162.55 49.4599 161.94 49.7299C161.33 49.9899 160.58 50.1199 159.69 50.1199Z" fill="#96B6DC"/>
<path d="M167.885 40.8049H164.285V39.4999H172.97V40.8049H169.37V49.9999H167.885V40.8049Z" fill="#96B6DC"/>
<defs>
<filter id="filter0_d_386_2753" x="0.580487" y="0.730957" width="59.8395" height="64.8398" filterUnits="userSpaceOnUse" color-interpolation-filters="sRGB">
<feFlood flood-opacity="0" result="BackgroundImageFix"/>
<feColorMatrix in="SourceAlpha" type="matrix" values="0 0 0 0 0 0 0 0 0 0 0 0 0 0 0 0 0 0 127 0" result="hardAlpha"/>
<feOffset dy="2.15084"/>
<feGaussianBlur stdDeviation="1.07542"/>
<feComposite in2="hardAlpha" operator="out"/>
<feColorMatrix type="matrix" values="0 0 0 0 0 0 0 0 0 0 0 0 0 0 0 0 0 0 0.14 0"/>
<feBlend mode="normal" in2="BackgroundImageFix" result="effect1_dropShadow_386_2753"/>
<feBlend mode="normal" in="SourceGraphic" in2="effect1_dropShadow_386_2753" result="shape"/>
</filter>
</defs>
</svg>
