<svg width="86" height="74" viewBox="0 0 86 74" fill="none" xmlns="http://www.w3.org/2000/svg">
<path opacity="0.4" d="M62.2327 27.5207C58.063 27.5207 54.8315 26.1956 52.5382 23.5454C50.0364 21.0992 48.7855 17.8375 48.7855 13.7603C48.7855 9.27547 50.2448 5.80991 53.1636 3.36363C55.8739 1.1212 59.8351 -5.34199e-06 65.0473 -5.79765e-06C71.5103 -6.36267e-06 76.6182 2.44626 80.3709 7.33882C84.1236 12.2314 86 19.1625 86 28.1322C86 36.6942 84.1236 44.5427 80.3709 51.6777C76.4097 59.0165 70.5721 66.3554 62.8582 73.6942C62.6497 73.8981 62.337 74 61.92 74C61.2945 74 60.7733 73.6942 60.3564 73.0826C59.9394 72.4711 59.9394 71.9614 60.3564 71.5537C70.5721 61.3609 75.68 49.3333 75.68 35.4711C75.68 29.7631 74.6376 25.584 72.5527 22.9339C70.6764 25.9917 67.2364 27.5207 62.2327 27.5207ZM13.4473 27.5207C9.27758 27.5207 6.04607 26.1956 3.75273 23.5454C1.25092 21.0992 2.71951e-06 17.8375 2.36307e-06 13.7603C1.971e-06 9.27547 1.4594 5.80991 4.37818 3.36363C7.08849 1.12121 11.0497 -1.07703e-06 16.2618 -1.53269e-06C22.7248 -2.0977e-06 27.8327 2.44626 31.5855 7.33883C35.3382 12.2314 37.2145 19.1625 37.2145 28.1322C37.2145 36.6942 35.3382 44.5427 31.5855 51.6777C27.6243 59.0165 21.7867 66.3554 14.0727 73.6942C13.8643 73.8981 13.5515 74 13.1345 74C12.5091 74 11.9879 73.6942 11.5709 73.0826C11.1539 72.4711 11.1539 71.9614 11.5709 71.5537C21.7867 61.3609 26.8946 49.3333 26.8946 35.4711C26.8946 29.7631 25.8521 25.584 23.7673 22.9339C21.8909 25.9917 18.4509 27.5207 13.4473 27.5207Z" fill="#96B6DC"/>
</svg>
