<svg width="56" height="56" viewBox="0 0 56 56" fill="none" xmlns="http://www.w3.org/2000/svg">
<circle cx="28" cy="28" r="28" fill="#37AEE2"/>
<g clip-path="url(#clip0_2263_2838)">
<path fill-rule="evenodd" clip-rule="evenodd" d="M35.7213 17.5375C36.0302 17.4074 36.3683 17.3626 36.7004 17.4076C37.0325 17.4526 37.3465 17.5858 37.6097 17.7933C37.8728 18.0008 38.0756 18.2751 38.1968 18.5876C38.318 18.9 38.3532 19.2393 38.2988 19.57L35.4638 36.7662C35.1888 38.425 33.3688 39.3762 31.8476 38.55C30.5751 37.8587 28.6851 36.7937 26.9851 35.6825C26.1351 35.1262 23.5313 33.345 23.8513 32.0775C24.1263 30.9937 28.5013 26.9212 31.0013 24.5C31.9826 23.5487 31.5351 23 30.3763 23.875C27.4988 26.0475 22.8788 29.3512 21.3513 30.2812C20.0038 31.1012 19.3013 31.2412 18.4613 31.1012C16.9288 30.8462 15.5076 30.4512 14.3476 29.97C12.7801 29.32 12.8563 27.165 14.3463 26.5375L35.7213 17.5375Z" fill="white"/>
</g>
<defs>
<clipPath id="clip0_2263_2838">
<rect width="30" height="30" fill="white" transform="translate(11 12)"/>
</clipPath>
</defs>
</svg>
