<svg width="56" height="56" viewBox="0 0 56 56" fill="none" xmlns="http://www.w3.org/2000/svg">
<circle cx="28" cy="28" r="28" fill="#6D3C82"/>
<path d="M22.9561 20.7525C22.7237 20.7187 22.4869 20.7654 22.2848 20.885H22.2673C21.7986 21.16 21.3761 21.5063 21.0161 21.9138C20.7161 22.26 20.5536 22.61 20.5111 22.9475C20.4861 23.1475 20.5036 23.35 20.5623 23.5412L20.5848 23.5538C20.9223 24.545 21.3623 25.4988 21.8998 26.3962C22.5929 27.6569 23.4458 28.8227 24.4373 29.865L24.4673 29.9075L24.5148 29.9425L24.5436 29.9763L24.5786 30.0062C25.6245 31.0008 26.7931 31.8577 28.0561 32.5563C29.4998 33.3425 30.3761 33.7137 30.9023 33.8687V33.8763C31.0561 33.9237 31.1961 33.945 31.3373 33.945C31.7855 33.9119 32.2097 33.7297 32.5423 33.4275C32.9486 33.0675 33.2923 32.6438 33.5598 32.1725V32.1638C33.8111 31.6888 33.7261 31.2413 33.3636 30.9375C32.6354 30.3013 31.8481 29.7362 31.0123 29.25C30.4523 28.9462 29.8836 29.13 29.6536 29.4375L29.1623 30.0575C28.9098 30.365 28.4523 30.3225 28.4523 30.3225L28.4398 30.33C25.0261 29.4588 24.1148 26.0025 24.1148 26.0025C24.1148 26.0025 24.0723 25.5325 24.3886 25.2925L25.0036 24.7975C25.2986 24.5575 25.5036 23.99 25.1873 23.43C24.7043 22.5935 24.1404 21.8063 23.5036 21.08C23.3647 20.9091 23.1699 20.7926 22.9536 20.7513L22.9561 20.7525ZM28.7248 19.25C28.5591 19.25 28.4001 19.3158 28.2829 19.4331C28.1657 19.5503 28.0998 19.7092 28.0998 19.875C28.0998 20.0408 28.1657 20.1997 28.2829 20.3169C28.4001 20.4342 28.5591 20.5 28.7248 20.5C30.3048 20.5 31.6173 21.0162 32.6561 22.0062C33.1898 22.5475 33.6061 23.1888 33.8786 23.8913C34.1523 24.595 34.2773 25.3463 34.2448 26.0988C34.2378 26.2645 34.297 26.4262 34.4093 26.5484C34.5216 26.6705 34.6778 26.743 34.8436 26.75C35.0093 26.757 35.1711 26.6978 35.2932 26.5855C35.4153 26.4732 35.4878 26.317 35.4948 26.1512C35.5336 25.2256 35.3799 24.302 35.0436 23.4387C34.7057 22.5714 34.1935 21.7826 33.5386 21.1213L33.5261 21.1087C32.2373 19.8775 30.6073 19.25 28.7248 19.25Z" fill="white"/>
<path d="M28.6816 21.305C28.5159 21.305 28.3569 21.3708 28.2397 21.488C28.1225 21.6052 28.0566 21.7642 28.0566 21.93C28.0566 22.0957 28.1225 22.2547 28.2397 22.3719C28.3569 22.4891 28.5159 22.555 28.6816 22.555H28.7029C29.8429 22.6362 30.6729 23.0162 31.2541 23.64C31.8504 24.2825 32.1591 25.0812 32.1354 26.0687C32.1316 26.2345 32.1938 26.395 32.3083 26.5149C32.4228 26.6348 32.5803 26.7043 32.746 26.7081C32.9118 26.7119 33.0723 26.6497 33.1922 26.5352C33.3121 26.4207 33.3816 26.2632 33.3854 26.0975C33.4154 24.8012 32.9979 23.6825 32.1704 22.79V22.7875C31.3241 21.88 30.1629 21.4 28.7654 21.3062L28.7441 21.3037L28.6816 21.305Z" fill="white"/>
<path d="M28.6575 23.3989C28.5738 23.3915 28.4896 23.4011 28.4097 23.427C28.3298 23.4529 28.256 23.4946 28.1926 23.5497C28.1292 23.6048 28.0776 23.6721 28.0408 23.7475C28.004 23.823 27.9828 23.9051 27.9784 23.989C27.974 24.0728 27.9866 24.1567 28.0154 24.2356C28.0441 24.3145 28.0885 24.3867 28.1458 24.4481C28.2031 24.5095 28.2722 24.5587 28.3489 24.5927C28.4257 24.6268 28.5085 24.6451 28.5925 24.6464C29.115 24.6739 29.4487 24.8314 29.6587 25.0427C29.87 25.2552 30.0275 25.5964 30.0562 26.1302C30.0578 26.214 30.0762 26.2967 30.1104 26.3733C30.1446 26.4499 30.1939 26.5189 30.2553 26.576C30.3167 26.6332 30.389 26.6774 30.4678 26.706C30.5467 26.7346 30.6305 26.7471 30.7143 26.7427C30.798 26.7382 30.88 26.7169 30.9554 26.6801C31.0308 26.6433 31.098 26.5917 31.153 26.5283C31.208 26.465 31.2497 26.3912 31.2756 26.3115C31.3015 26.2317 31.3111 26.1475 31.3037 26.0639C31.2637 25.3139 31.0287 24.6514 30.5475 24.1639C30.0637 23.6764 29.405 23.4389 28.6575 23.3989Z" fill="white"/>
<path fill-rule="evenodd" clip-rule="evenodd" d="M21.8335 15.9803C25.8111 15.0912 29.9359 15.0912 33.9135 15.9803L34.3373 16.0741C35.5 16.334 36.5679 16.9112 37.4223 17.7416C38.2768 18.572 38.8842 19.623 39.1773 20.7778C40.1869 24.7564 40.1869 28.9242 39.1773 32.9028C38.8842 34.0577 38.2768 35.1087 37.4223 35.939C36.5679 36.7694 35.5 37.3466 34.3373 37.6066L33.9123 37.7003C31.421 38.2574 28.8647 38.4673 26.316 38.3241L22.9998 41.2916C22.8747 41.4035 22.722 41.4798 22.5574 41.5126C22.3928 41.5453 22.2224 41.5333 22.0641 41.4778C21.9057 41.4222 21.7652 41.3252 21.6571 41.1968C21.5491 41.0684 21.4775 40.9133 21.4498 40.7478L20.901 37.4703C19.8487 37.1429 18.898 36.5511 18.1397 35.7514C17.3814 34.9518 16.8409 33.971 16.5698 32.9028C15.5601 28.9242 15.5601 24.7564 16.5698 20.7778C16.8628 19.623 17.4703 18.572 18.3247 17.7416C19.1791 16.9112 20.247 16.334 21.4098 16.0741L21.8335 15.9803ZM33.5048 17.8091C29.7964 16.9801 25.9507 16.9801 22.2423 17.8091L21.8173 17.9041C20.9932 18.0886 20.2363 18.498 19.6309 19.0867C19.0254 19.6755 18.5949 20.4205 18.3873 21.2391C17.4544 24.915 17.4544 28.7657 18.3873 32.4416C18.595 33.2603 19.0257 34.0055 19.6314 34.5942C20.2371 35.1829 20.9942 35.5922 21.8185 35.7766L21.931 35.8016C22.113 35.8423 22.2787 35.9363 22.407 36.0717C22.5352 36.2071 22.6202 36.3776 22.651 36.5616L23.0185 38.7591L25.3585 36.6653C25.452 36.5815 25.5613 36.5172 25.68 36.4764C25.7988 36.4356 25.9245 36.4191 26.0498 36.4278C28.5486 36.6051 31.0599 36.4177 33.5048 35.8716L33.9285 35.7766C34.7528 35.5922 35.5099 35.1829 36.1156 34.5942C36.7214 34.0055 37.152 33.2603 37.3598 32.4416C38.2923 28.7666 38.2923 24.9153 37.3598 21.2391C37.152 20.4203 36.7214 19.6752 36.1156 19.0864C35.5099 18.4977 34.7528 18.0884 33.9285 17.9041L33.5048 17.8091Z" fill="white"/>
</svg>
