<svg width="56" height="56" viewBox="0 0 56 56" fill="none" xmlns="http://www.w3.org/2000/svg">
<circle cx="28" cy="28" r="28" fill="#27D045"/>
<path d="M36.8125 19.1376C35.6665 17.98 34.3015 17.0622 32.797 16.4376C31.2926 15.8131 29.6789 15.4944 28.05 15.5001C21.225 15.5001 15.6625 21.0626 15.6625 27.8876C15.6625 30.0751 16.2375 32.2001 17.3125 34.0751L15.5625 40.5001L22.125 38.7751C23.9375 39.7626 25.975 40.2876 28.05 40.2876C34.875 40.2876 40.4375 34.7251 40.4375 27.9001C40.4375 24.5876 39.15 21.4751 36.8125 19.1376ZM28.05 38.1876C26.2 38.1876 24.3875 37.6876 22.8 36.7501L22.425 36.5251L18.525 37.5501L19.5625 33.7501L19.3125 33.3626C18.2847 31.7213 17.7389 29.8241 17.7375 27.8876C17.7375 22.2126 22.3625 17.5876 28.0375 17.5876C30.7875 17.5876 33.375 18.6626 35.3125 20.6126C36.2719 21.5675 37.0321 22.7034 37.5492 23.9544C38.0664 25.2053 38.33 26.5465 38.325 27.9001C38.35 33.5751 33.725 38.1876 28.05 38.1876ZM33.7 30.4876C33.3875 30.3376 31.8625 29.5876 31.5875 29.4751C31.3 29.3751 31.1 29.3251 30.8875 29.6251C30.675 29.9376 30.0875 30.6376 29.9125 30.8376C29.7375 31.0501 29.55 31.0751 29.2375 30.9126C28.925 30.7626 27.925 30.4251 26.75 29.3751C25.825 28.5501 25.2125 27.5376 25.025 27.2251C24.85 26.9126 25 26.7501 25.1625 26.5876C25.3 26.4501 25.475 26.2251 25.625 26.0501C25.775 25.8751 25.8375 25.7376 25.9375 25.5376C26.0375 25.3251 25.9875 25.1501 25.9125 25.0001C25.8375 24.8501 25.2125 23.3251 24.9625 22.7001C24.7125 22.1001 24.45 22.1751 24.2625 22.1626H23.6625C23.45 22.1626 23.125 22.2376 22.8375 22.5501C22.5625 22.8626 21.7625 23.6126 21.7625 25.1376C21.7625 26.6626 22.875 28.1376 23.025 28.3376C23.175 28.5501 25.2125 31.6751 28.3125 33.0126C29.05 33.3376 29.625 33.5251 30.075 33.6626C30.8125 33.9001 31.4875 33.8626 32.025 33.7876C32.625 33.7001 33.8625 33.0376 34.1125 32.3126C34.375 31.5876 34.375 30.9751 34.2875 30.8376C34.2 30.7001 34.0125 30.6376 33.7 30.4876Z" fill="white"/>
</svg>
