<svg width="56" height="56" viewBox="0 0 56 56" fill="none" xmlns="http://www.w3.org/2000/svg">
<circle cx="28" cy="28" r="28" fill="#007FFF"/>
<path d="M31.4715 30.5475L34.784 25.6475C35.1115 25.165 34.4902 24.6413 34.0152 24.9863L30.4427 27.505C30.3231 27.5882 30.1809 27.6328 30.0352 27.6328C29.8895 27.6328 29.7473 27.5882 29.6277 27.505L26.9827 25.6588C26.1915 25.1125 25.0602 25.3125 24.529 26.0775L21.2165 30.9775C20.889 31.46 21.5102 31.985 21.9852 31.6388L25.5577 29.12C25.6773 29.0369 25.8195 28.9923 25.9652 28.9923C26.1109 28.9923 26.2531 29.0369 26.3727 29.12L29.0177 30.935C29.809 31.5125 30.9402 31.3125 31.4715 30.5475Z" fill="white"/>
<path fill-rule="evenodd" clip-rule="evenodd" d="M28 15.8125C24.7677 15.8125 21.6677 17.0965 19.3821 19.3821C17.0965 21.6677 15.8125 24.7677 15.8125 28C15.8106 29.6433 16.1419 31.27 16.7864 32.7817C17.431 34.2934 18.3754 35.6586 19.5625 36.795V39.875C19.5624 40.0236 19.5977 40.17 19.6653 40.3023C19.7329 40.4346 19.831 40.5489 19.9515 40.6359C20.072 40.7228 20.2115 40.7798 20.3583 40.8023C20.5052 40.8247 20.6553 40.8119 20.7963 40.765L24.2713 39.6063C25.4764 39.9925 26.7344 40.1886 28 40.1875C34.7313 40.1875 40.1875 34.7313 40.1875 28C40.1875 21.2687 34.7313 15.8125 28 15.8125ZM17.6875 28C17.6884 25.812 18.3851 23.6809 19.677 21.915C20.9689 20.1491 22.789 18.8399 24.8741 18.1767C26.9592 17.5134 29.2012 17.5306 31.2759 18.2256C33.3505 18.9207 35.1504 20.2576 36.4152 22.043C37.6799 23.8285 38.344 25.9699 38.3114 28.1577C38.2787 30.3455 37.5511 32.4662 36.2337 34.2132C34.9163 35.9601 33.0774 37.2428 30.9829 37.8757C28.8884 38.5085 26.6469 38.4588 24.5825 37.7338C24.3862 37.6647 24.1724 37.6629 23.975 37.7288L21.4375 38.5737V36.3862C21.4377 36.2541 21.4099 36.1235 21.3561 36.0028C21.3022 35.8822 21.2235 35.7743 21.125 35.6863C20.0422 34.7201 19.1761 33.5357 18.5837 32.211C17.9912 30.8863 17.6858 29.4512 17.6875 28Z" fill="white"/>
</svg>
