<svg width="56" height="56" viewBox="0 0 56 56" fill="none" xmlns="http://www.w3.org/2000/svg">
<circle cx="28" cy="28" r="28" fill="#96B6DC"/>
<path d="M20.1667 18C19.0616 18 18.0018 18.4214 17.2204 19.1716C16.439 19.9217 16 20.9391 16 22V22.402L28.5 28.864L41 22.404V22C41 20.9391 40.561 19.9217 39.7796 19.1716C38.9982 18.4214 37.9384 18 36.8333 18H20.1667ZM41 24.674L28.9938 30.88C28.842 30.9584 28.6723 30.9995 28.5 30.9995C28.3277 30.9995 28.158 30.9584 28.0062 30.88L16 24.674V34C16 35.0609 16.439 36.0783 17.2204 36.8284C18.0018 37.5786 19.0616 38 20.1667 38H36.8333C37.9384 38 38.9982 37.5786 39.7796 36.8284C40.561 36.0783 41 35.0609 41 34V24.674Z" fill="white"/>
</svg>
