<svg width="56" height="56" viewBox="0 0 56 56" fill="none" xmlns="http://www.w3.org/2000/svg">
<circle cx="28" cy="28" r="28" fill="url(#paint0_linear_2263_2795)"/>
<path d="M35.1203 19.2813C34.8039 19.2813 34.4945 19.3751 34.2314 19.551C33.9683 19.7268 33.7632 19.9766 33.6421 20.269C33.521 20.5614 33.4893 20.8831 33.5511 21.1934C33.6128 21.5038 33.7652 21.7889 33.989 22.0127C34.2127 22.2364 34.4978 22.3888 34.8082 22.4506C35.1185 22.5123 35.4403 22.4806 35.7326 22.3595C36.025 22.2384 36.2749 22.0333 36.4507 21.7702C36.6265 21.5071 36.7203 21.1978 36.7203 20.8813C36.7203 20.457 36.5518 20.05 36.2517 19.7499C35.9516 19.4499 35.5447 19.2813 35.1203 19.2813ZM41.2537 22.508C41.2277 21.4017 41.0205 20.3072 40.6403 19.268C40.3013 18.3788 39.7736 17.5737 39.0937 16.908C38.4334 16.2245 37.6264 15.7002 36.7337 15.3746C35.6972 14.9828 34.6015 14.7709 33.4937 14.748C32.0803 14.668 31.627 14.668 28.0003 14.668C24.3737 14.668 23.9203 14.668 22.507 14.748C21.3992 14.7709 20.3034 14.9828 19.267 15.3746C18.3759 15.7035 17.5696 16.2274 16.907 16.908C16.2236 17.5682 15.6992 18.3752 15.3737 19.268C14.9819 20.3044 14.7699 21.4002 14.747 22.508C14.667 23.9213 14.667 24.3746 14.667 28.0013C14.667 31.628 14.667 32.0813 14.747 33.4946C14.7699 34.6024 14.9819 35.6982 15.3737 36.7346C15.6992 37.6274 16.2236 38.4344 16.907 39.0946C17.5696 39.7752 18.3759 40.2991 19.267 40.628C20.3034 41.0198 21.3992 41.2317 22.507 41.2546C23.9203 41.3346 24.3737 41.3346 28.0003 41.3346C31.627 41.3346 32.0803 41.3346 33.4937 41.2546C34.6015 41.2317 35.6972 41.0198 36.7337 40.628C37.6264 40.3024 38.4334 39.7781 39.0937 39.0946C39.7766 38.4314 40.3048 37.6256 40.6403 36.7346C41.0205 35.6954 41.2277 34.6009 41.2537 33.4946C41.2537 32.0813 41.3337 31.628 41.3337 28.0013C41.3337 24.3746 41.3337 23.9213 41.2537 22.508ZM38.8537 33.3346C38.8439 34.181 38.6907 35.0196 38.4003 35.8146C38.1874 36.3949 37.8455 36.9192 37.4003 37.348C36.9679 37.7886 36.4446 38.1299 35.867 38.348C35.0719 38.6383 34.2334 38.7916 33.387 38.8013C32.0537 38.868 31.5603 38.8813 28.0537 38.8813C24.547 38.8813 24.0537 38.8813 22.7203 38.8013C21.8415 38.8178 20.9665 38.6824 20.1337 38.4013C19.5814 38.1721 19.0821 37.8317 18.667 37.4013C18.2244 36.973 17.8868 36.4482 17.6803 35.868C17.3548 35.0615 17.1742 34.2039 17.147 33.3346C17.147 32.0013 17.067 31.508 17.067 28.0013C17.067 24.4946 17.067 24.0013 17.147 22.668C17.153 21.8027 17.3109 20.9452 17.6137 20.1346C17.8484 19.5718 18.2087 19.0702 18.667 18.668C19.0721 18.2095 19.5727 17.8454 20.1337 17.6013C20.9464 17.308 21.803 17.1547 22.667 17.148C24.0003 17.148 24.4937 17.068 28.0003 17.068C31.507 17.068 32.0003 17.068 33.3337 17.148C34.18 17.1577 35.0186 17.311 35.8137 17.6013C36.4196 17.8262 36.9634 18.1918 37.4003 18.668C37.8373 19.0775 38.1787 19.5783 38.4003 20.1346C38.6967 20.9465 38.85 21.8037 38.8537 22.668C38.9203 24.0013 38.9337 24.4946 38.9337 28.0013C38.9337 31.508 38.9203 32.0013 38.8537 33.3346ZM28.0003 21.1613C26.6481 21.1639 25.3269 21.5673 24.2039 22.3205C23.0808 23.0737 22.2062 24.1429 21.6905 25.393C21.1748 26.643 21.0413 28.0179 21.3067 29.3439C21.5721 30.6698 22.2246 31.8873 23.1818 32.8426C24.1389 33.7979 25.3577 34.448 26.6841 34.7108C28.0106 34.9737 29.3852 34.8374 30.6343 34.3193C31.8834 33.8013 32.9508 32.9246 33.7018 31.8C34.4528 30.6755 34.8537 29.3536 34.8537 28.0013C34.8554 27.1014 34.6793 26.2101 34.3353 25.3786C33.9914 24.547 33.4864 23.7917 32.8495 23.156C32.2126 22.5204 31.4563 22.0169 30.6241 21.6745C29.7919 21.3322 28.9002 21.1578 28.0003 21.1613ZM28.0003 32.4413C27.1222 32.4413 26.2637 32.1809 25.5336 31.693C24.8034 31.2052 24.2344 30.5117 23.8983 29.7004C23.5622 28.8891 23.4743 27.9964 23.6456 27.1351C23.817 26.2738 24.2398 25.4827 24.8608 24.8617C25.4817 24.2408 26.2728 23.8179 27.1341 23.6466C27.9954 23.4753 28.8881 23.5632 29.6994 23.8993C30.5107 24.2353 31.2042 24.8044 31.692 25.5346C32.1799 26.2647 32.4403 27.1232 32.4403 28.0013C32.4403 28.5844 32.3255 29.1617 32.1024 29.7004C31.8792 30.2391 31.5522 30.7286 31.1399 31.1409C30.7276 31.5531 30.2381 31.8802 29.6994 32.1033C29.1608 32.3265 28.5834 32.4413 28.0003 32.4413Z" fill="white"/>
<defs>
<linearGradient id="paint0_linear_2263_2795" x1="28" y1="56" x2="52.5" y2="-18" gradientUnits="userSpaceOnUse">
<stop stop-color="#F5B25D"/>
<stop offset="0.333333" stop-color="#E04C55"/>
<stop offset="0.666667" stop-color="#B2388C"/>
<stop offset="1" stop-color="#8D4E9C"/>
</linearGradient>
</defs>
</svg>
