<svg width="38" height="38" viewBox="0 0 38 38" fill="none" xmlns="http://www.w3.org/2000/svg">
<g opacity="0.5" clip-path="url(#clip0_386_558)">
<path d="M36.5886 20.4004C36.3206 23.7675 35.0918 26.9869 33.048 29.6761C31.0042 32.3654 28.2314 34.4114 25.059 35.5711C21.8866 36.7309 18.448 36.9556 15.1516 36.2186C11.8553 35.4815 8.83978 33.8138 6.4634 31.4134C4.08701 29.013 2.44962 25.9809 1.74576 22.6773C1.0419 19.3737 1.30116 15.9375 2.49272 12.7769C3.68429 9.61636 5.75808 6.86425 8.46773 4.84759C11.1774 2.83093 14.409 1.63449 17.7786 1.40039" stroke="#96B6DC" stroke-width="2.3" stroke-linecap="round" stroke-linejoin="round"/>
<path d="M26.5729 21.9589C26.0827 23.2204 25.2858 24.34 24.2543 25.2162C23.2227 26.0924 21.989 26.6976 20.6647 26.9772C19.3404 27.2567 17.9674 27.2018 16.6697 26.8174C15.372 26.4329 14.1905 25.731 13.2323 24.7752C12.274 23.8194 11.5691 22.6398 11.1813 21.3431C10.7935 20.0464 10.735 18.6734 11.0112 17.3485C11.2873 16.0235 11.8894 14.7882 12.763 13.7544C13.6365 12.7206 14.754 11.9208 16.0143 11.4274M19 19.0003L25.7857 12.2146M25.7857 12.2146L31.2143 13.5717L36.6429 8.14314L31.2143 6.78599L29.8571 1.35742L24.4286 6.78599L25.7857 12.2146Z" stroke="#96B6DC" stroke-width="2.3" stroke-linecap="round" stroke-linejoin="round"/>
</g>
<defs>
<clipPath id="clip0_386_558">
<rect width="38" height="38" fill="white"/>
</clipPath>
</defs>
</svg>
