<svg width="65" height="65" viewBox="0 0 65 65" fill="none" xmlns="http://www.w3.org/2000/svg">
<rect width="65" height="65" rx="15" fill="white"/>
<path d="M14.0617 32.7739L14.0617 32.774L14.0662 32.7747C14.3124 32.8161 14.5305 33.0329 14.7417 33.3366C15.1819 33.9958 15.411 34.7869 15.411 35.5958C15.411 36.127 15.3119 36.663 15.1385 37.1903C14.51 38.6754 12.8846 39.7048 11.3017 40.015L11.3534 40.2786L11.302 40.015C11.2117 40.0326 10.8434 40.058 10.3393 40.0655C9.84579 40.0728 9.25093 40.0628 8.72224 40.0168C8.45775 39.9938 8.21432 39.9622 8.01061 39.9205C7.80165 39.8778 7.65547 39.8286 7.57156 39.7803C7.56595 39.7771 7.56094 39.7741 7.55646 39.7713C7.55713 39.7705 7.55782 39.7696 7.55853 39.7688C7.58892 39.7332 7.64207 39.6848 7.72886 39.6245L7.72893 39.6246L7.73526 39.6199C7.80953 39.565 7.90851 39.5256 8.04266 39.4878C8.08151 39.4768 8.12891 39.4647 8.18012 39.4517C8.27842 39.4266 8.39078 39.398 8.48371 39.3668C8.77932 39.2675 9.19408 39.0382 9.28585 38.5988L9.28599 38.5988L9.2875 38.5902C9.35769 38.1893 9.13273 37.9028 8.91323 37.705C8.80268 37.6054 8.67756 37.5137 8.56559 37.4316L8.56462 37.4309C8.44843 37.3458 8.34575 37.2705 8.25848 37.1928C7.84882 36.8162 7.73043 36.1341 7.98388 35.6232L7.98393 35.6232L7.98623 35.6183C8.22629 35.1089 8.79578 34.7727 9.39365 34.7591C9.76896 34.7526 10.1368 34.8685 10.5192 35.0483C10.766 35.1644 10.998 35.2959 11.2382 35.432C11.3822 35.5136 11.5291 35.5969 11.6839 35.6795L11.6839 35.6795L11.6895 35.6824C11.6937 35.6845 11.6982 35.6868 11.7029 35.6892C11.7854 35.7312 11.9434 35.8117 12.134 35.7857C12.4289 35.7504 12.5562 35.4949 12.6074 35.3608C12.741 35.0635 12.8097 34.7475 12.8682 34.4547C12.8752 34.4193 12.8821 34.3844 12.889 34.3498C12.9411 34.0861 12.989 33.8431 13.0698 33.6115C13.1552 33.3663 13.3096 33.1277 13.4963 32.9664C13.6822 32.8058 13.8764 32.7395 14.0617 32.7739ZM7.52203 39.7446C7.52232 39.7446 7.52382 39.746 7.52571 39.7489C7.52269 39.746 7.52175 39.7446 7.52203 39.7446Z" fill="#546B9E" fill-opacity="0.35" stroke="#96B6DC" stroke-width="0.537709"/>
<path d="M12.8921 39.1276C11.1554 39.235 9.4035 39.2197 7.65161 39.0815C7.20983 39.0508 6.73758 38.9894 6.3872 38.7283C6.03682 38.4673 5.85401 37.8992 6.14346 37.5614C6.31103 37.3465 6.60047 37.285 6.85945 37.239C8.97696 36.8551 11.2163 37.2543 13.0596 38.3445C12.4655 38.8358 11.5362 38.5595 10.9574 38.0528C10.3785 37.5461 9.99762 36.8398 9.4035 36.3484C8.85509 35.8878 8.10863 35.55 7.95629 34.8591C7.78871 34.0299 8.70275 33.2929 9.54061 33.3697C10.3785 33.4465 11.064 34.0606 11.6124 34.7055C12.496 35.765 13.1663 36.9933 13.5928 38.3138C13.0901 36.9472 12.9073 35.4732 13.0596 34.0299C13.1663 33.0012 13.6538 31.7882 14.6744 31.6654C15.4361 31.5732 16.1521 32.2335 16.3654 32.9705C16.5787 33.7228 16.4263 34.5213 16.1978 35.2736C15.8322 36.4866 15.2838 37.6535 14.5983 38.713C14.1108 39.4654 13.1967 40.2484 12.4198 39.8031C11.78 39.4346 11.8257 38.3445 12.435 37.9299C13.0444 37.5 13.9584 37.7303 14.4307 38.2984C14.7506 38.6669 14.9182 39.2043 14.7658 39.6803C14.6135 40.1563 14.0803 40.4941 13.6081 40.3406C13.1358 40.187 12.9378 39.4807 13.2881 39.1583C13.3338 39.1276 14.4916 41.6303 14.6135 41.9067C14.9639 42.7358 15.1467 43.6417 15.3599 44.5169C15.6037 45.4842 15.101 46.5283 15.0705 47.511C15.04 48.9236 15.756 50.2901 15.7408 51.7027C15.4666 51.0272 15.1924 50.3362 14.9029 49.6606C14.6744 49.1079 14.4459 48.5551 14.0651 48.0945C13.6233 47.5724 13.0139 47.1886 12.5264 46.6972C11.9628 46.1291 11.2468 45.8988 10.4699 45.7913C9.98239 45.7299 9.49491 45.7146 9.02266 45.8681C8.56564 46.0216 8.13909 46.3594 7.97152 46.8201C7.80395 47.2807 7.94105 47.8642 8.33713 48.1252C8.68751 48.3555 9.14453 48.3248 9.57108 48.2634C10.805 48.0945 12.1456 47.3575 13.3338 47.8642C14.0194 48.1559 14.7963 49.0925 14.8268 49.8756C14.324 49.6913 14.1869 49.0772 13.8823 48.6472C13.669 48.3402 13.3643 48.1098 13.0596 47.8795C12.7245 47.6185 12.3741 47.3575 11.978 47.2039C11.4601 46.989 10.8812 46.9583 10.3328 46.9276" stroke="#96B6DC" stroke-width="0.537709" stroke-miterlimit="10" stroke-linecap="round" stroke-linejoin="round"/>
<path d="M57.2353 57.2375L57.2352 57.2375L57.2385 57.2417C57.5658 57.664 57.5919 58.1501 57.2601 58.4845C57.0336 58.7128 56.6787 58.8645 56.2606 59.0206C54.7476 59.5792 53.0826 59.9272 51.3864 60.0331L51.3864 60.033L51.3836 60.0333C50.3507 60.1087 49.2531 60.0703 48.2723 59.8655C47.288 59.66 46.4481 59.2926 45.8986 58.7322C45.4564 58.2722 45.2278 57.7079 45.0488 57.1213L45.0487 57.1212C44.8148 56.3568 44.8641 55.4935 45.2797 54.837C45.6862 54.1949 46.4755 53.7004 47.8339 53.7222C50.3887 53.7672 53.6168 55.0927 55.6847 56.1348C56.3283 56.4591 56.9123 56.8034 57.2353 57.2375Z" stroke="#96B6DC" stroke-width="0.537709"/>
<path d="M33.532 52.4727L33.5339 52.4715C35.3817 51.376 36.988 49.7854 38.4817 48.2032C38.4925 48.1919 38.5033 48.1806 38.5141 48.1694C38.9688 47.6956 39.3784 47.2688 39.9108 47.0542L39.9108 47.0542L39.9162 47.052C40.4565 46.8205 41.0936 46.8978 41.4192 47.2718C41.6359 47.5273 41.7063 47.88 41.7684 48.302C41.9645 49.6707 42.0799 51.3499 41.895 52.9424C41.7095 54.5398 41.2261 56.0142 40.2572 57.0124L40.2571 57.0125C38.29 59.0402 35.6613 60.3225 32.9044 60.851L32.9043 60.851C29.0461 61.5925 25.0392 60.9893 21.1458 60.1308L21.1443 60.1305C19.4991 59.7774 17.8806 59.3416 16.6246 58.3408C14.1915 56.3964 14.372 53.1053 15.1012 50.2389C15.1126 50.2004 15.1224 50.1659 15.1312 50.1345C15.1642 50.0179 15.1849 49.9444 15.2338 49.8705L15.2338 49.8705L15.2358 49.8674C15.3409 49.7037 15.5546 49.6154 15.7423 49.6583C15.7835 49.6721 15.849 49.6938 15.9171 49.7027C15.9963 49.7131 16.1028 49.7102 16.2078 49.6494C16.2712 49.6144 16.3127 49.5647 16.3326 49.539C16.358 49.506 16.3785 49.4715 16.3929 49.4424C16.4459 49.3358 16.4863 49.2288 16.5211 49.1309C16.5323 49.0993 16.5427 49.0694 16.5527 49.0407C16.5753 48.976 16.5958 48.9171 16.6194 48.8569C16.6846 48.6909 16.7549 48.5673 16.871 48.4713C17.1237 48.2656 17.5694 48.1624 17.9687 48.1325C19.0129 48.0627 20.0095 48.6101 20.99 49.2278C22.5851 50.2383 24.1492 51.2945 25.6825 52.4115L25.6838 52.4124C25.7354 52.4496 25.7873 52.4872 25.8395 52.5249C26.4208 52.9456 27.0365 53.3913 27.7509 53.6313L27.7521 53.6317C28.7959 53.9769 29.9359 53.8739 30.9548 53.5896C31.8821 53.336 32.7263 52.9411 33.532 52.4727Z" fill="#546B9E" fill-opacity="0.25" stroke="#96B6DC" stroke-width="0.537709"/>
<path d="M32.6953 3.32831L32.6953 3.32832L32.6975 3.32911C33.514 3.61868 34.271 4.01872 34.6014 4.69656C34.8499 5.22521 34.7926 5.88329 34.6713 6.54129C34.2681 8.57147 33.2596 10.549 31.5612 11.6317L31.5606 11.6321C30.2392 12.4796 28.7166 12.3486 27.3704 11.6325C26.0199 10.9142 24.8817 9.62148 24.372 8.21967C23.9372 7.02167 23.9747 5.75024 24.6913 4.70192C25.5055 3.52166 26.9191 2.82966 28.3539 2.6673C29.8055 2.50476 31.2848 2.81411 32.6953 3.32831Z" fill="#546B9E" fill-opacity="0.3" stroke="#96B6DC" stroke-width="0.537709"/>
<path d="M17.0385 29.5161L17.0386 29.5162C17.8591 33.0539 18.8619 36.5305 20.0321 39.9461C20.4571 41.1855 20.9128 42.4103 21.3841 43.6208L21.3846 43.6221C21.5133 43.958 21.637 44.3285 21.7633 44.7067C21.7854 44.7727 21.8075 44.839 21.8298 44.9053C21.9805 45.355 22.1381 45.813 22.3191 46.2532C22.6838 47.14 23.1293 47.9158 23.7616 48.3851L23.7628 48.3859C24.3737 48.8441 25.2297 49.156 26.1459 49.3637C27.0576 49.5704 28.0053 49.6689 28.7815 49.7145L28.782 49.7145C31.544 49.8819 34.4882 49.4031 36.3398 47.4488C37.6735 46.0379 38.2087 44.3712 38.5209 42.5688C38.643 41.8636 38.7299 41.145 38.8184 40.4133C38.8434 40.2068 38.8685 39.9992 38.8946 39.7905C39.0124 38.8474 39.1492 37.8892 39.3816 36.9443L39.3818 36.9435C39.8025 35.2535 40.3107 33.5818 40.8167 31.9175C40.9728 31.4041 41.1287 30.8914 41.2817 30.3791C41.9323 28.201 42.5336 26.0229 42.8963 23.7913C43.0777 22.6715 43.2166 21.2215 42.9958 19.9458C42.7753 18.6717 42.2099 17.6307 41.0299 17.2089L41.0298 17.2089C39.8923 16.8021 38.4243 16.6603 36.9198 16.6507C35.4198 16.6412 33.9075 16.763 32.6893 16.8704L17.0385 29.5161ZM17.0385 29.5161C16.4116 26.8191 15.9738 23.9169 17.3554 21.6886C18.7798 19.4035 21.6801 18.5415 24.4586 18.0184L24.4594 18.0182M17.0385 29.5161L24.4594 18.0182M24.4594 18.0182C27.1772 17.4979 29.9256 17.1153 32.6892 16.8704L24.4594 18.0182Z" stroke="#96B6DC" stroke-width="0.537709"/>
<path d="M38.3478 42.0143C38.5001 42.6746 39.0638 43.1505 39.4446 43.734C40.2825 45.0084 40.0845 46.6667 40.054 48.1868C40.0083 49.7068 40.2977 51.4879 41.6078 52.2556C41.9887 52.4706 42.4305 52.5934 42.7047 52.9312C43.314 53.6836 42.6437 54.7738 41.943 55.4186C38.6982 58.3974 34.2499 59.5643 29.9539 60.4856C27.6384 60.9769 25.2924 61.4375 22.9464 61.284C19.6863 61.069 17.1727 59.4875 14.9943 57.1076C14.7048 56.7852 14.4154 56.4474 14.2935 56.0328C14.1107 55.4493 14.263 54.8198 14.3392 54.2056C14.4306 53.5147 14.3545 52.8084 14.4306 52.1175C14.522 51.3958 14.7201 50.6742 14.9333 49.9986C14.9943 49.8143 15.0552 49.6301 15.1771 49.4919C15.299 49.3537 15.5122 49.2769 15.6798 49.369C16.2587 49.6608 16.4263 51.2576 16.6091 51.8104C16.9137 52.7777 17.2489 53.7297 17.6907 54.6202C18.4067 56.0789 19.473 57.4454 20.905 58.2131C21.7429 58.6738 22.6874 58.9041 23.6166 59.0883C27.6232 59.856 31.9039 59.6564 35.5752 57.86C37.8908 56.7238 39.8864 54.9734 41.3336 52.8238C40.8004 52.0253 39.536 52.1789 38.82 52.8238C38.1041 53.4533 37.7537 54.3899 37.251 55.2037C36.3826 56.5702 35.0116 57.5836 33.4577 58.0135C31.9039 58.4434 30.2129 58.2592 28.7809 57.5375C27.7603 57.0155 26.8615 56.2324 25.7799 55.8793C24.8506 55.5722 23.8604 55.6029 22.8854 55.5415C21.9104 55.4801 20.8898 55.2805 20.1586 54.6356C19.7015 54.2364 19.4121 53.6836 19.1227 53.1462C18.2086 51.4726 17.3098 49.8143 16.3958 48.1407C16.2892 47.9411 16.1825 47.7415 16.1977 47.5265C16.213 47.2194 16.4567 46.9738 16.6852 46.7895C17.4012 46.1907 18.2086 45.6994 19.0769 45.3462C19.4273 45.1927 19.8386 45.0698 20.2043 45.2234C20.448 45.3155 20.6308 45.5305 20.8745 45.6379C21.1183 45.7301 21.4839 45.6379 21.4991 45.3769C21.5296 45.0238 20.966 44.9316 20.8441 44.6092C20.6917 44.2407 21.9257 43.2734 22.1542 42.9049C22.6417 42.1218 22.9159 41.2005 23.0225 40.2793C23.2358 38.4214 22.7788 36.6096 22.6721 34.7671C22.5655 32.8939 22.3827 31.0206 22.1237 29.1781C22.0019 28.2876 21.8495 27.397 21.7124 26.5218C21.423 26.4911 21.2859 26.8596 21.2554 27.1513C21.1183 28.7175 21.6667 30.2529 22.0476 31.7883C22.6721 34.3525 22.794 37.0242 22.4132 39.6344C22.1847 39.6958 22.0171 39.4348 21.9257 39.2045C20.4023 35.2738 19.473 31.1281 18.559 27.0131C18.3 25.8769 18.0563 24.7407 17.9649 23.5891C17.8735 22.4222 17.9953 21.1478 18.7723 20.2726C19.3055 19.6738 20.0824 19.3667 20.8288 19.0903C22.6874 18.4301 24.6068 17.9695 26.4197 17.2017C28.1106 16.4801 28.5067 15.3132 29.0551 13.6395C29.0856 13.5474 29.1161 13.4553 29.0856 13.3632C29.0094 13.1328 28.6895 13.1482 28.4458 13.1636C27.3489 13.225 26.4654 12.2884 25.8408 11.3825C24.8963 10.0159 24.1041 8.46513 24.0432 6.80687C23.9975 5.82419 24.2565 4.74939 25.0334 4.13521C25.8103 3.52104 26.9224 3.52104 27.8974 3.75136C28.263 3.84348 28.6438 3.95096 28.9333 4.18128C29.2227 4.41159 29.4207 4.73403 29.5426 5.08718C29.8321 5.96238 29.5274 6.99112 28.8876 7.65135C28.2325 8.31159 27.288 8.61868 26.374 8.57261C25.2924 8.52655 24.226 7.98915 23.6471 7.08324C23.053 6.17734 23.0225 4.90293 23.6471 4.02773C24.3479 3.04506 25.658 2.73797 26.8462 2.72262C27.5774 2.70726 28.3544 2.79939 28.8876 3.29073C29.7254 4.0738 29.5122 5.57852 28.918 6.45372C28.6286 6.88364 28.1563 7.22143 27.6536 7.25214C27.547 7.2675 27.4251 7.25214 27.3185 7.20608C27.1661 7.12931 27.0747 6.94505 27.029 6.77616C26.9072 6.30017 27.0138 5.79348 27.2271 5.34821C27.4403 4.90293 27.7603 4.53443 28.0802 4.16592C28.7048 3.45962 29.375 2.76868 30.2129 2.38482C31.066 2.00096 32.041 1.97025 32.9702 2.01632C33.6862 2.06238 34.4175 2.15451 35.0725 2.43088C35.6209 2.6612 36.1084 3.0297 36.4893 3.49033C36.8549 3.92025 37.1138 4.42695 37.3424 4.94899C37.4642 5.24073 37.5861 5.54781 37.6927 5.83954C37.7994 6.11592 37.8908 6.3923 37.8603 6.68403C37.8146 7.16001 37.4185 7.51316 36.9767 7.71277C36.5502 7.91238 36.0779 7.98915 35.6514 8.18875C34.9354 8.5112 34.7221 9.15608 34.3565 9.7856C33.9452 10.4765 33.5491 11.1828 33.3206 11.9659C33.0921 12.7336 33.0616 13.5935 33.3816 14.3305C33.5948 14.8065 33.9452 15.221 34.3261 15.5742C35.7276 16.9254 37.5861 17.8006 39.5208 18.0002C40.4501 18.0923 41.4707 18.0616 42.2477 18.599C43.1617 19.2285 43.4664 20.4108 43.6949 21.5009C43.9386 22.6525 44.2585 23.8041 44.3042 24.971C44.3652 26.2608 44.3652 27.5506 44.3347 28.8403C44.3042 30.2222 44.2585 31.5887 44.2128 32.9706C44.1367 35.0435 44.2738 37.0702 44.3956 39.1431C44.4109 39.2813 44.4109 39.4501 44.3042 39.5576C44.2433 39.619 44.1519 39.6498 44.0605 39.6651C43.7863 39.7419 43.4968 39.8186 43.2226 39.8801C43.0398 39.9261 42.857 39.9722 42.6742 39.9568C42.4914 39.9415 42.3086 39.8186 42.2477 39.6498C42.1715 39.4194 42.3238 39.1738 42.5371 39.0663C42.7504 38.9588 42.9941 38.9742 43.2226 38.9895C43.6796 39.0356 44.1519 39.1584 44.4413 39.5269C44.6241 39.7572 44.7003 40.049 44.7613 40.3407C45.5839 43.8722 45.7819 47.4805 46.6655 50.9966C46.8331 51.6722 47.0159 52.3478 47.2291 53.0234C47.3967 53.5915 47.5186 54.0367 48.0518 54.3899C48.3107 54.5742 48.6154 54.6816 48.9201 54.7584C49.6056 54.9427 50.2454 54.8659 50.931 54.958C51.5251 55.0348 52.0735 55.2651 52.6524 55.434C53.3836 55.649 54.1453 55.7411 54.907 55.7257C55.0441 55.7257 55.2269 55.7564 55.2422 55.8946C55.2422 55.9253 55.2422 55.9714 55.2269 56.0021C55.1508 56.1864 54.9832 56.3245 54.7851 56.3553C55.7449 56.6009 56.7046 56.8466 57.6643 57.0923C57.9233 57.1537 58.426 57.4608 58.1518 57.7832C58.2889 57.8753 58.5327 57.9675 58.5784 58.121C58.6241 58.2745 58.5479 58.4434 58.4108 58.5202C58.2737 58.6123 58.1214 58.6277 57.969 58.6277C57.8167 58.6277 57.5272 58.5509 57.3901 58.597C57.253 58.643 57.2378 58.8119 57.0855 58.8734C56.9788 58.9194 56.8569 58.9194 56.7351 58.9194C55.6839 58.9041 54.709 58.4127 53.6731 58.2131C53.7492 58.4434 54.0234 58.5356 54.252 58.597C54.6937 58.7198 55.1203 58.8887 55.5316 59.073C55.5925 59.1037 55.6687 59.1497 55.6992 59.2112C55.7753 59.4108 55.4554 59.5182 55.3031 59.5336C55.0898 59.5489 54.8918 59.4568 54.6937 59.4108C53.6883 59.2112 52.7438 58.858 51.7536 58.6584C50.8548 58.4742 49.9408 58.2745 49.042 58.121C48.1889 57.9828 47.3967 57.9214 46.635 57.4454C46.4522 57.3379 46.2694 57.1997 46.1018 57.0615C45.7057 56.7238 45.3858 56.3245 45.0507 55.9253C44.7003 55.4954 44.7308 55.0655 44.6546 54.5434C44.548 53.8218 44.289 53.1155 44.0453 52.4245C42.8875 49.2155 41.6383 46.0218 40.6633 42.7513C40.2673 41.4001 39.9321 40.0183 39.9473 38.6057C39.9626 37.3159 40.252 36.0261 40.1759 34.7364C40.1149 33.8151 39.8712 32.8939 40.054 31.9879C40.2216 31.2049 40.709 30.5293 40.9071 29.7616C41.1965 28.6868 40.9223 27.4584 41.4707 26.5065C41.7449 26.0305 42.202 25.6466 42.2477 25.1092C41.9735 25.0324 41.7297 25.3395 41.6078 25.6006C40.7243 27.5198 40.6176 29.7002 40.0692 31.7576C39.4903 33.9226 38.424 35.934 37.9517 38.1297C37.6318 39.5883 37.5861 41.1238 36.9615 42.4749C38.1193 42.7974 38.5001 44.3328 38.1193 45.4844C37.7384 46.6206 36.8701 47.5265 36.2455 48.5553C35.3163 50.0753 34.9202 51.8718 34.0366 53.4226C33.8995 53.6682 33.7319 53.9139 33.473 54.0521C33.0616 54.2824 32.5437 54.1442 32.1019 53.9907C29.177 53.008 26.3435 51.7797 23.6319 50.321C23.1444 50.06 22.6569 49.7836 22.3218 49.3537C21.5753 48.4017 21.7124 46.9431 20.8745 46.0832C20.7831 45.9911 20.7222 46.0372 20.6156 46.1139C20.5089 46.1907 20.4785 46.3289 20.4937 46.4671C20.5089 46.5899 20.5699 46.7127 20.6308 46.8202C20.8745 47.2962 21.7124 48.2482 21.4077 48.8316C21.2859 49.0773 20.9355 49.108 20.6765 49.062C20.25 48.9852 19.8539 48.7549 19.5644 48.4324C19.3207 48.1714 19.1379 47.849 18.8637 47.634C18.6352 47.4651 18.361 47.3883 18.0715 47.3116C17.9039 47.2655 17.7059 47.2348 17.5688 47.3423C17.3251 47.4958 17.4012 47.895 17.6297 48.0793C17.843 48.2635 18.1477 48.3096 18.4219 48.4017C18.818 48.5245 19.1836 48.7549 19.4883 49.0466C19.534 49.0927 19.5797 49.1387 19.6406 49.1387C19.7015 49.1387 19.7625 49.0619 19.732 49.0159" stroke="#96B6DC" stroke-width="0.537709" stroke-miterlimit="10" stroke-linecap="round" stroke-linejoin="round"/>
<path d="M35.621 11.9048C35.6057 12.0123 35.5905 12.1198 35.5143 12.2119C35.4534 12.3041 35.3163 12.3501 35.2249 12.2887C35.1944 12.2733 35.1639 12.2273 35.1335 12.1966C34.8288 11.7359 34.7983 11.1678 34.7831 10.6151C34.7679 10.3387 34.7679 10.0623 34.7526 9.78594C34.7374 9.50957 34.7679 9.17177 35.0116 9.04894C35.301 8.91075 35.5448 9.03358 35.7124 9.24854C35.7581 9.30996 36.1694 9.83201 36.1694 9.86272C36.2151 9.24854 35.7581 8.71114 35.5753 8.11232C35.362 7.37532 35.6362 6.51547 36.2455 6.05484C36.4588 5.88595 36.794 5.77847 36.9768 5.99343C37.0377 6.0702 37.0682 6.16232 37.0834 6.25445C37.251 6.88398 37.4338 7.45209 37.6623 8.03555C37.8146 8.40406 37.9822 8.80327 37.8756 9.18713C37.7842 9.52492 37.4947 9.8013 37.4947 10.1544C37.4947 10.3387 37.5709 10.4922 37.6318 10.6611C37.7994 11.1064 37.906 11.5824 37.8451 12.0584C37.7689 12.7033 37.4338 13.2714 37.1291 13.8395C36.7635 14.5304 36.4284 15.2367 36.1541 15.9584C36.0932 16.1273 36.0018 16.3115 35.8342 16.3422C35.7276 16.3576 35.621 16.3115 35.5143 16.2501C35.1335 16.0352 34.7374 15.8048 34.5394 15.421C34.4175 15.1907 34.3718 14.9296 34.3261 14.6686C34.2499 14.208 34.1585 13.7166 34.2956 13.2714C34.3261 13.1792 34.3718 13.0718 34.4784 13.0564C34.5241 13.0411 34.5851 13.0718 34.6155 13.0871C34.8745 13.256 34.8288 13.6399 34.7526 13.947C34.6308 14.4537 34.4936 14.9603 34.3718 15.467C34.4022 15.3135 34.4327 15.1446 34.4632 14.9911" stroke="#96B6DC" stroke-width="0.537709" stroke-miterlimit="10" stroke-linecap="round" stroke-linejoin="round"/>
<path d="M27.5775 4.16601C27.3185 4.25814 27.0747 4.38097 26.8462 4.50381C26.2978 4.81089 25.8103 5.24082 25.5361 5.79357C25.2467 6.34633 25.201 7.05262 25.5057 7.59003C25.9017 8.32703 26.8462 8.63412 27.6536 8.48058C28.461 8.32703 29.1618 7.77428 29.695 7.14475C30.0301 6.74554 30.3348 6.26955 30.4262 5.74751C30.5176 5.22546 30.3653 4.62664 29.9539 4.3042C29.7864 4.18137 29.6036 4.1046 29.4055 4.04318C28.6438 3.84357 27.7907 4.08924 27.1661 4.58058C26.5416 5.07192 26.1302 5.80892 25.9017 6.57664C25.7951 6.9605 25.7189 7.35971 25.7799 7.74357C25.9017 8.54199 26.6177 9.18687 27.4099 9.32506C28.202 9.46325 29.0399 9.17152 29.6493 8.63412C30.2434 8.11207 30.6699 7.34436 30.609 6.54593" stroke="#96B6DC" stroke-width="0.537709" stroke-miterlimit="10" stroke-linecap="round" stroke-linejoin="round"/>
<path d="M33.1987 27.5351C33.0311 25.3395 32.7112 23.1592 32.2695 21.0095C32.1781 20.5489 32.0714 20.0115 32.3913 19.6123C33.214 19.8733 33.4425 23.1284 33.5796 23.9269C33.8385 25.5698 33.9604 27.2434 33.869 28.917C33.5339 34.7056 30.609 40.2485 31.1269 46.0217" stroke="#96B6DC" stroke-width="0.537709" stroke-miterlimit="10" stroke-linecap="round" stroke-linejoin="round"/>
<path d="M57.0399 36.825L56.7731 36.7913C56.7367 37.0801 56.5056 37.3168 56.1693 37.4276C55.8326 37.5386 55.4591 37.4979 55.2099 37.3042C55.0547 37.1819 54.9306 37.0269 54.7869 36.8475C54.7317 36.7786 54.6737 36.7061 54.6099 36.6305C54.3988 36.3803 54.1269 36.1048 53.7263 36.0241C53.2951 35.9371 52.9423 36.0619 52.6469 36.2635C52.4053 36.4284 52.1873 36.6562 51.9915 36.8608C51.9596 36.8941 51.9283 36.9268 51.8976 36.9585C51.6653 37.1985 51.4571 37.3933 51.226 37.5017C51.0118 37.6022 50.7646 37.6343 50.4325 37.5103C50.0098 37.3469 49.6822 36.913 49.6452 36.4651L49.6449 36.4623C49.6269 36.2687 49.6532 36.073 49.6841 35.842C49.6865 35.8241 49.6889 35.8059 49.6914 35.7875C49.7233 35.5468 49.7569 35.2661 49.7029 34.9813C49.6669 34.7662 49.5955 34.5705 49.4924 34.3797C49.4055 34.2155 49.2963 34.0493 49.1961 33.8968C49.1499 33.8265 49.1057 33.7591 49.0664 33.6962C48.9329 33.4823 48.8314 33.2848 48.7877 33.0716C48.6906 32.5803 48.9473 32.0305 49.376 31.6929L49.376 31.693L49.38 31.6897C49.816 31.3327 50.3723 31.159 50.9753 31.0223L50.9159 30.7601L50.9746 31.0224C51.0133 31.0137 51.0532 31.005 51.094 30.9961C51.3304 30.9442 51.597 30.8858 51.8439 30.7958C52.1372 30.6888 52.4321 30.528 52.6499 30.2515C52.9215 29.9113 52.9995 29.5035 53.0255 29.124C53.0378 28.9452 53.0389 28.7629 53.0399 28.591C53.04 28.5798 53.0401 28.5686 53.0402 28.5575C53.0414 28.3726 53.0433 28.1998 53.0574 28.0357C53.0911 27.6777 53.2366 27.303 53.456 27.0307C53.6745 26.7595 53.9425 26.6148 54.2317 26.6368L54.2337 26.637C54.4761 26.6536 54.6978 26.7873 54.8747 27.0074C55.0524 27.2285 55.1709 27.5215 55.2036 27.8115C55.2376 28.1125 55.2078 28.4215 55.1508 28.7463C55.1223 28.9085 55.0876 29.0713 55.0516 29.2383C55.0491 29.2496 55.0467 29.261 55.0442 29.2724C55.011 29.4265 54.9769 29.5846 54.9478 29.7422C54.8696 30.1368 54.8049 30.6712 54.8942 31.1509C54.9853 31.6404 55.2504 32.1197 55.8579 32.2787C55.963 32.3079 56.0702 32.3337 56.1725 32.3583C56.1825 32.3607 56.1923 32.3631 56.2021 32.3654C56.3159 32.3928 56.4238 32.4193 56.5282 32.4499C56.7376 32.5112 56.9153 32.5844 57.0606 32.6942C57.1934 32.7947 57.3005 32.9568 57.343 33.1237C57.385 33.289 57.3576 33.4249 57.2781 33.5171L57.2769 33.5186C57.2029 33.6055 57.0883 33.6555 56.9098 33.675C56.7639 33.6909 56.6113 33.6837 56.4438 33.6759C56.3981 33.6737 56.3514 33.6715 56.3035 33.6697L56.3035 33.6696H56.2934C56.0078 33.6696 55.7712 33.7016 55.5933 33.7824C55.3989 33.8706 55.2639 34.0246 55.239 34.2373C55.2176 34.4202 55.2848 34.6005 55.3617 34.7488C55.442 34.9038 55.5553 35.0654 55.6766 35.2232C55.7925 35.3739 55.9229 35.5302 56.0497 35.6821L56.0697 35.7061C56.2044 35.8675 56.3344 36.0239 56.4475 36.1734C56.5613 36.324 56.6509 36.4582 56.7083 36.5738C56.7685 36.6948 56.7767 36.7627 56.7731 36.7919L57.0399 36.825ZM57.0399 36.825C57.0805 36.4976 56.6659 36.0008 56.2573 35.5113C55.5931 34.7154 54.9446 33.9384 56.2934 33.9384L50.337 37.7616C51.1935 38.0823 51.6962 37.5577 52.1889 37.0435C52.6163 36.5975 53.0363 36.1592 53.6732 36.2876C54.0555 36.3647 54.3059 36.6775 54.5598 36.9947C54.7106 37.183 54.8626 37.3729 55.0442 37.516C55.7145 38.038 56.9332 37.6695 57.0399 36.825ZM54.2521 26.3687L54.2521 26.3688L54.2521 26.3687Z" fill="#546B9E" fill-opacity="0.35" stroke="#96B6DC" stroke-width="0.537709"/>
<path d="M47.2444 61.2536C47.7776 58.2135 48.9049 55.1273 50.1693 52.3328C51.0529 50.3828 52.1345 48.4789 53.7188 47.0355C55.2879 45.5922 57.4358 44.6556 59.5534 44.9167C60.2693 45.0088 61.1224 45.4848 60.9853 46.1911C60.9396 46.3907 60.833 46.5442 60.7111 46.6978C58.426 49.569 53.2465 48.4789 51.0833 51.4422C52.3782 48.5403 55.6839 47.2505 58.6698 46.2371" stroke="#96B6DC" stroke-width="0.537709" stroke-miterlimit="10" stroke-linecap="round" stroke-linejoin="round"/>
<path d="M43.0551 61.6063C42.6133 61.5758 42.1715 61.5605 41.7297 61.5605" stroke="#96B6DC" stroke-width="0.537709" stroke-miterlimit="10" stroke-linecap="round" stroke-linejoin="round"/>
<path d="M53.6121 33.4468C52.7895 33.2318 53.4903 32.0956 53.993 32.8019C54.3738 33.3547 53.8863 34.1377 53.2465 33.7385C52.6676 33.3854 52.5762 32.6177 52.4087 32.0188C52.2258 31.3586 51.9669 30.7291 51.6165 30.1456C51.129 29.3318 49.697 27.2283 48.5393 27.7043C47.153 28.2724 48.067 30.3452 48.7678 31.0976C49.8494 32.2645 51.4337 33.1243 52.82 33.846C51.4489 34.5984 49.9408 35.6885 49.3771 37.2086C49.1029 37.7767 49.1029 38.8515 49.7123 38.698C51.5403 38.2373 52.6067 36.2413 53.0942 34.4448M53.0942 34.4448C52.8504 35.3354 53.1246 36.1338 53.0942 34.4448ZM53.0942 34.4448C53.0637 36.2413 53.6731 38.0838 55.3488 39.0051C56.1105 39.3121 57.3292 39.3121 57.4815 38.3909C57.9385 36.2413 55.6535 35.0129 54.1453 33.8306M54.1453 33.8306C55.0593 34.3834 55.0746 33.6003 54.1453 33.8306ZM54.1453 33.8306C55.0746 33.6003 55.9886 33.2472 56.8417 32.7866C57.4968 32.4334 58.3194 31.9881 58.5784 31.2204C59.203 29.4086 56.5675 30.2377 55.8363 30.6677C55.0898 31.1129 54.3891 31.7425 54.0082 32.5255C54.8613 30.8058 55.6992 28.5181 55.5011 26.5681C55.3488 25.9539 55.0441 25.1862 54.4348 25.4933C53.6731 25.8003 53.3684 26.7216 53.216 27.6429C53.0637 29.1783 52.6067 30.8673 53.1551 32.4488M53.1551 32.4488C52.1954 32.2645 52.82 31.2972 53.1551 32.4488ZM53.1551 32.4488C51.6927 32.2492 50.1693 32.0956 48.6459 32.2492C48.1889 32.4027 47.5795 32.2492 47.2748 32.8633C46.9702 33.324 46.9702 34.0917 47.7319 34.3988C49.5599 35.0129 51.388 34.0917 53.1399 33.8306M53.1399 33.8306C52.0735 34.107 52.6981 38.8362 53.1399 33.8306ZM53.1399 33.8306C52.6067 38.5444 52.4544 43.3043 50.931 47.9106C49.2552 52.3633 47.5795 56.509 46.6655 61.1153C46.9702 61.7294 47.7319 61.2688 48.3412 61.4224C48.4936 61.4224 48.7982 61.5759 48.6459 61.7294C46.9702 62.3436 45.2944 61.7294 43.6187 61.668" stroke="#96B6DC" stroke-width="0.537709" stroke-miterlimit="10" stroke-linecap="round" stroke-linejoin="round"/>
</svg>
